<?xml version="1.0" encoding="UTF-8" standalone="no"?>
<!-- Created with Inkscape (http://www.inkscape.org/) -->

<svg
   xmlns:dc="http://purl.org/dc/elements/1.1/"
   xmlns:cc="http://creativecommons.org/ns#"
   xmlns:rdf="http://www.w3.org/1999/02/22-rdf-syntax-ns#"
   xmlns:svg="http://www.w3.org/2000/svg"
   xmlns="http://www.w3.org/2000/svg"
   xmlns:sodipodi="http://sodipodi.sourceforge.net/DTD/sodipodi-0.dtd"
   xmlns:inkscape="http://www.inkscape.org/namespaces/inkscape"
   width="210mm"
   height="297mm"
   id="svg2"
   version="1.1"
   inkscape:version="0.48.5 r10040"
   sodipodi:docname="silver_bocetoitsec.svg">
  <defs
     id="defs4">
    <style
       id="style3062"
       type="text/css">
    .fil0 {fill:#007F7F}
    .fil1 {fill:#00C9D1}
   </style>
  </defs>
  <sodipodi:namedview
     id="base"
     pagecolor="#ffffff"
     bordercolor="#666666"
     borderopacity="1.0"
     inkscape:pageopacity="0.0"
     inkscape:pageshadow="2"
     inkscape:zoom="0.64031029"
     inkscape:cx="341.83562"
     inkscape:cy="530.93618"
     inkscape:document-units="px"
     inkscape:current-layer="layer1"
     showgrid="false"
     inkscape:window-width="1920"
     inkscape:window-height="1037"
     inkscape:window-x="0"
     inkscape:window-y="25"
     inkscape:window-maximized="1" />
  <metadata
     id="metadata7">
    <rdf:RDF>
      <cc:Work
         rdf:about="">
        <dc:format>image/svg+xml</dc:format>
        <dc:type
           rdf:resource="http://purl.org/dc/dcmitype/StillImage" />
      </cc:Work>
    </rdf:RDF>
  </metadata>
  <g
     inkscape:label="Capa 1"
     inkscape:groupmode="layer"
     id="layer1">
    <g
       id="g4102"
       transform="matrix(0.32019004,0,0,0.32019004,608.61448,664.38839)">
      <path
         d="m -15.765112,1053.9262 0,70.1509 c 0,2.0548 1.665337,3.7205 3.71978,3.7205 0.15482,0 0.310534,-0.01 0.462668,-0.027 10.0431217,-1.2607 20.1684852,-1.7635 30.287763,-1.5052 13.303277,0.5987 26.62293,-0.5594 39.62149,-3.4427 21.175079,-4.9478 35.599498,-24.6999 43.199521,-44.2416 5.76312,-14.4375 11.07745,-29.0494 15.93985,-43.8143 l 71.47937,-204.28369 c 0.68014,-1.93998 -0.34275,-4.06244 -2.283,-4.73989 -0.39465,-0.13871 -0.8081,-0.20941 -1.22701,-0.20941 l -229.575595,0 0,-46.45654 c 0,-2.05435 -1.665337,-3.72219 -3.722286,-3.72219 l -80.562609,0 -18.38332,-16.14963 c -0.68013,-0.59869 -1.55088,-0.92515 -2.45725,-0.92515 l -64.08052,0 -0.003,-5.97791 c -0.1933,-4.94151 0.80274,-9.85573 2.90622,-14.33198 5.78765,-11.49663 25.95041,-14.3837 37.65108,-13.99181 l 11.61637,0.72666 11.69504,2.0625 34.05676,8.46495 c 1.99457,0.49846 4.01349,-0.71861 4.50891,-2.70988 0.0716,-0.29442 0.11097,-0.59601 0.11097,-0.89822 l 0,-109.97095 c 0,-1.84503 -1.35212,-3.4122 -3.178,-3.68192 l -14.30182,-2.11145 -14.89782,-1.63518 c -24.81871,-2.51147 -51.23223,1.79859 -72.82362,14.79965 l 0,-6.65821 c 0,-2.05444 -1.6682,-3.72265 -3.72255,-3.72265 l -113.48437,0 c -2.05444,0 -3.71942,1.66821 -3.71942,3.72265 l 0,39.64565 c -31.57258,-41.91228 -85.40058,-50.37221 -134.00642,-50.66879 -46.33394,-0.28279 -102.42866,11.74963 -130.57535,53.25651 l -0.69355,1.08848 c -10.25289,-24.12739 -30.944,-40.85924 -56.12729,-47.31896 -29.16698,-7.79878 -64.29602,-5.96475 -92.57838,5.58888 l 0,-1.59168 c 0,-2.05445 -1.66534,-3.72256 -3.7197,-3.72256 l -101.45677,0 0,-59.99088 c 0,-2.05731 -1.66534,-3.72264 -3.71979,-3.72264 l -116.14581,0 c -2.05441,0 -3.71975,1.66533 -3.71975,3.72264 l 0,90.18361 c -14.94669,-19.5289 -40.50558,-29.8608 -64.53268,-33.39525 -19.0201,-2.97432 -38.2581,-4.3455 -57.5067,-4.09824 -33.2432,0.0358 -82.4508,1.06691 -112.1349,19.43395 l 2.4516,-7.21342 c 0.6641,-1.94562 -0.3781,-4.05994 -2.3237,-4.7211 -0.3866,-0.13065 -0.7891,-0.19867 -1.1972,-0.19867 l -124.0399,0 c -1.6323,0 -3.0773,1.06683 -3.5564,2.63122 l -18.2745,59.62128 -20.1522,-59.7191 c -0.5089,-1.51293 -1.9265,-2.5334 -3.5239,-2.5334 l -93.8357,0 c -1.5594,0 -2.9523,0.97438 -3.4884,2.43523 l -22.0163,59.76805 -16.3888,-59.46861 c -0.4436,-1.61603 -1.9127,-2.73467 -3.5865,-2.73467 l -124.4023,0 c -2.0544,0 -3.7201,1.6682 -3.7201,3.72256 0,0.40539 0.067,0.81079 0.1977,1.1973 l 73.004,214.7022 c 0.5124,1.51052 1.9294,2.52248 3.5217,2.52248 l 119.9948,0 c 1.5538,0 2.947,-0.96874 3.4884,-2.42717 l 20.1441,-54.3475 20.1464,54.3475 c 0.539,1.45843 1.9322,2.42717 3.4884,2.42717 l 119.9957,0 c 1.592,0 3.0097,-1.01196 3.521,-2.52248 l 19.3957,-57.0358 c 9.4123,58.53817 66.8319,67.74607 114.5645,66.77206 -14.3239,15.21068 -20.9576,34.29874 -21.1836,54.95164 -0.2013,18.63631 6.5905,35.61301 20.6312,48.72388 l -23.8556,0 c -2.0569,0 -3.7222,1.6657 -3.7222,3.72014 0,0.0268 0,0.0447 0,0.0716 l 0.3292,16.87494 c 0.253,28.8156 14.2118,52.9064 38.8948,67.4066 10.0378,5.8972 22.9818,11.453 34.6743,12.8559 13.257,1.3893 26.5982,1.7954 39.9125,1.2161 l 1047.21412,0.3866 c 0.568267,-0.2103 1.172779,-0.3061 1.779438,-0.2828 z m -981.330858,-155.35272 -40.65263,0 c -2.7319,-11.82327 -9.8532,-21.22439 -22.0868,-23.159 -11.8885,-1.88289 -13.9591,-1.26004 -25.3197,-0.54411 -12.7289,0.80274 -22.2742,9.07188 -22.13,21.17267 0.092,7.50193 5.4829,12.71263 12.1875,15.1398 10.008,3.66806 20.3535,6.34822 30.8838,8.00255 l 29.0664,6.92258 c 13.7249,3.5263 29.9044,11.09302 37.86619,23.49701 4.70479,7.33109 5.86416,14.32624 6.0353,22.86985 0.38938,10.45129 -2.20677,20.79877 -7.48558,29.82827 -18.91941,31.4772 -69.25911,33.6755 -101.62321,26.8504 -28.0704,-5.9195 -51.9451,-22.5389 -53.76,-53.44643 l 42.7478,0 c 1.4339,14.99877 13.1754,23.61576 26.895,25.76933 10.0488,1.5761 19.355,1.99 29.3276,0.4367 11.5455,-1.7982 21.9642,-9.77836 22.5438,-21.70652 0.3727,-7.70919 -5.4475,-13.65094 -12.1847,-16.06604 -10.158,-3.71799 -20.6284,-6.51539 -31.2895,-8.36078 -9.6678,-1.82588 -19.2677,-4.01027 -28.7751,-6.54868 -13.7905,-3.75701 -28.7425,-11.00622 -36.6937,-23.49558 -8.0298,-12.60954 -7.2269,-29.80657 -2.4296,-43.43908 9.8964,-28.11644 40.2987,-38.06211 67.4984,-37.61322 9.6191,0.0805 19.2189,0.88417 28.7181,2.38636 28.2118,4.72924 47.673,22.26929 50.66069,51.50437 z m 156.81946,82.01219 42.53549,0 c -16.27724,48.54953 -67.97463,60.42563 -112.71384,46.56503 -10.33191,-3.2726 -19.7741,-8.8675 -27.60509,-16.358 -24.65288,-24.10366 -28.63093,-69.98656 -21.95643,-102.16196 4.77814,-23.01761 17.9943,-44.4404 39.37387,-54.74501 21.66513,-10.4435 49.11791,-11.84207 72.30913,-4.99565 41.8474,12.34796 54.50016,56.26054 53.96689,94.4218 l 0,5.09141 -123.46797,0 c -2.05441,0 -3.71976,1.6657 -3.71976,3.7205 0,0.10023 0.003,0.19956 0.0107,0.29979 2.38641,29.56387 16.45685,48.92692 47.32994,48.37312 13.82564,-0.2488 28.44595,-6.61253 33.93703,-20.21032 z m 195.53234,-13.24269 41.78753,0 c -7.20563,42.02422 -38.45399,65.63392 -80.25217,65.04292 l -0.22014,0 c -56.61162,0.8734 -81.76797,-37.53385 -81.89021,-88.62182 -0.0626,-24.86157 4.61236,-51.83808 20.45691,-71.91975 20.80235,-26.36431 58.83475,-31.65376 89.54464,-23.96407 29.81194,7.46641 50.12987,29.22407 53.05238,60.45078 l -42.44019,0 c -4.47902,-19.62948 -17.2679,-30.35614 -35.54249,-29.9724 -42.21449,0.88686 -44.25792,48.051 -41.4446,77.93632 2.16354,23.01833 14.24759,44.02794 40.54101,43.45609 17.06951,-0.37049 28.79425,-10.15722 34.59291,-25.58403 0.85463,-2.20148 1.46407,-4.49003 1.81487,-6.82404 z m 243.79571,-117.78083 0,177.94295 -39.2569,0 0,-22.4146 c -0.18704,-2.279 -2.18761,-3.9742 -4.46524,-3.786 -1.33333,0.1101 -2.53313,0.8582 -3.21631,2.0077 -15.4771,27.1682 -47.37883,34.4022 -75.61546,25.814 -7.89086,-2.502 -15.06365,-6.8613 -20.91931,-12.7123 -12.26653,-12.4182 -16.14149,-31.38581 -16.0026,-48.54776 l 0,-118.30345 41.34643,0 0,111.24619 c -0.18256,24.7021 11.74139,37.97388 35.43904,37.89915 27.5591,-0.0895 41.73017,-20.99332 41.34643,-45.9442 l 0,-103.20096 41.34392,0 z m 52.73952,177.94295 0,-177.94295 39.25127,0 0,28.33686 c 0,2.05445 1.66784,3.72256 3.72219,3.72256 1.62176,0.13066 3.17836,-0.66402 4.0245,-2.05435 4.94679,-9.87479 11.56465,-18.81637 19.55905,-26.43518 9.14526,-8.27756 22.14955,-8.87348 33.67831,-8.01642 l 0,41.90977 c -3.39305,-0.27474 -6.79997,-0.37586 -10.20116,-0.30158 -21.99151,-0.0805 -41.21318,7.98339 -46.66345,30.70443 -1.38755,5.65404 -2.07073,11.46289 -2.02428,17.2867 l 0,92.79046 -41.34643,0 z m 137.2988,-177.94295 41.33542,0 0,177.94295 -41.33542,0 0,-177.94295 z m 41.33542,-67.2511 0,37.85807 -41.33542,0 0,-37.85807 41.33542,0 z m 101.408453,17.07478 0,46.45654 c 0,2.05445 1.665337,3.71978 3.719781,3.71978 l 26.595635,0 0,27.4092 -26.595635,0 c -2.054444,0 -3.719781,1.66498 -3.719781,3.71942 l 0.0081,100.97174 c 0.190616,5.18806 0.408079,10.34963 4.070585,14.2356 4.451727,4.72239 19.665277,4.19739 26.236687,3.76148 l 0,29.32791 -25.613472,0.6067 c -6.462678,0.072 -12.919539,-0.4707 -19.28154,-1.6136 -6.976804,-1.1023 -13.526198,-4.073 -18.949163,-8.5968 -6.49526,-5.7479 -7.89132,-17.3253 -7.81766,-26.08075 l 0,-112.61272 c 0,-2.05445 -1.66534,-3.71943 -3.7197,-3.71943 l -21.36855,0 0,-27.40919 21.36855,0 c 2.05436,0 3.7197,-1.66534 3.7197,-3.71978 l 0,-46.45654 41.346419,0 z M 156.81039,849.56215 94.746003,1026.9439 c -4.75367,14.3047 -9.89931,28.474 -15.436741,42.4941 -4.761813,12.1925 -13.11803,26.6289 -27.05526,30.1347 -14.492432,3.6446 -29.267656,2.3893 -43.9833679,1.9227 l 0,-31.2282 c 15.0990909,1.2858 32.6961429,-0.7025 37.9859529,-17.568 1.548462,-4.2867 2.69681,-8.7084 3.431351,-13.2076 0.10023,-0.6175 0.04475,-1.2512 -0.162873,-1.8411 l -66.546004,-188.08852 46.304226,0 38.948965,133.91604 c 0.462668,1.58918 1.918328,2.68186 3.572657,2.68186 1.875104,0.15571 3.624473,-0.95881 4.277847,-2.72437 l 37.223754,-133.87309 43.50424,0 z m -1717.43859,-32.80532 -59.1927,-174.08226 80.5743,0 28.7787,104.45831 c 0.4436,1.61361 1.9126,2.73189 3.5861,2.73189 1.7607,0.13871 3.4204,-0.83227 4.1606,-2.43532 l 38.5872,-104.75542 65.0932,0 35.3111,104.65698 c 0.5116,1.51544 1.9293,2.53313 3.5266,2.53313 1.8341,0.14677 3.5483,-0.91952 4.2258,-2.6313 l 32.046,-104.55943 80.6575,0 -59.1939,174.08226 -91.313,0 -34.2797,-92.48352 c -0.7129,-1.92648 -2.8545,-2.90864 -4.781,-2.19289 -1.0176,0.37497 -1.8177,1.17528 -2.1958,2.19289 l -34.28,92.48352 -91.3112,0 z m 408.9396,-126.4337 -75.523,0 c 4.5443,-19.24046 13.9128,-34.42135 32.7508,-42.64718 11.842,-5.00138 24.3673,-8.20417 37.1589,-9.49919 18.4486,-1.9782 36.9952,-2.91437 55.5505,-2.80277 27.7001,0.0537 63.5282,1.27918 89.0247,15.71953 19.39034,10.98779 25.78205,32.86761 25.44189,53.44426 l -0.003,87.69701 c -0.0761,8.36714 1.30605,16.93303 4.94148,24.52213 l -75.71607,0 c -1.2054,-4.6938 -1.9077,-9.5017 -2.0955,-14.34253 -0.079,-2.05436 -1.8092,-3.65455 -3.8636,-3.57552 -0.8791,0.0358 -1.72,0.38123 -2.3701,0.97688 -23.102,21.2081 -59.047,24.34529 -88.3774,24.24184 -25.3572,-0.0895 -67.131,-2.54405 -81.2885,-30.16552 -7.8449,-15.30599 -8.6177,-39.86069 1.7603,-54.31769 6.4382,-8.4653 15.2762,-14.79437 25.3629,-18.16576 15.5565,-5.22995 31.8174,-8.05714 48.2225,-8.38101 l 70.1,-3.31967 c 12.1659,-0.47877 26.5276,-3.36862 25.8119,-18.79435 -0.9252,-19.93992 -29.0228,-21.20524 -42.228,-21.16416 -16.0625,0.0448 -38.5001,1.93712 -44.6609,20.57379 z m 196.04958,126.4337 0,-174.08226 75.52007,0 0,174.08226 -75.52007,0 z m 0,-199.4422 0,-38.35341 75.52007,0 0,38.35341 -75.52007,0 z m 107.83211,199.4422 0,-174.08226 72.8672,0 0,18.84894 c 0,2.05445 1.6682,3.71942 3.7222,3.71942 1.3582,0.10381 2.68866,-0.42687 3.60004,-1.4365 16.23679,-19.3305 48.11373,-26.0978 72.05372,-26.10881 10.42722,-0.0358 20.81613,1.2629 30.91671,3.85867 30.78596,8.06779 46.00479,32.09486 45.67841,63.35986 l 0,111.84041 -75.52293,0 0,-90.12454 c 0.42419,-23.24294 -12.55495,-36.79393 -35.59708,-36.64448 -28.09478,0.18256 -42.77506,19.39036 -42.19256,46.93845 l 0,79.83022 -75.52579,0 z m 427.45619,-46.98167 81.12032,0 c -19.52075,46.29608 -81.22628,54.28512 -124.02013,54.28225 -26.88944,0 -47.52596,-2.34001 -73.22087,-10.55232 -17.7303,-5.63238 -33.33001,-16.51672 -44.73697,-31.21328 -12.23108,-16.28001 -15.07179,-33.86328 -15.40381,-52.8402 -0.47072,-18.12755 4.68566,-35.95594 14.76171,-51.03588 10.62562,-14.59311 25.37641,-25.67334 42.35061,-31.81456 21.94792,-7.94304 45.17494,-11.74963 68.50505,-11.23013 15.00691,0.10112 29.98627,1.26817 44.827,3.49408 24.0813,3.77392 49.04703,13.73033 65.64528,32.27169 17.28141,19.30606 24.2039,48.21441 24.01328,74.2739 l -178.86555,0 c -2.05445,0 -3.71978,1.66534 -3.71978,3.71969 0,0.0268 0,0.0537 0,0.0806 0.0922,4.24768 1.15908,8.41635 3.11849,12.18786 9.53714,18.49742 31.56408,24.35344 50.71487,24.30422 16.82144,-0.0448 33.47714,-2.40275 44.91095,-15.92894 z m 107.45178,46.98167 0,-174.08226 72.86719,0 0,31.12361 c 0,2.05686 1.66498,3.7222 3.71943,3.7222 1.38254,0.10381 2.72938,-0.44925 3.64111,-1.49101 13.22963,-16.32118 27.18601,-28.26097 47.49866,-34.45679 8.68286,-2.60678 17.70588,-3.91281 26.76961,-3.87496 13.77418,0.28011 11.2815,0.25595 23.56717,1.60547 l 0,66.27672 c -12.31297,-3.36289 -24.97916,-5.25437 -37.73582,-5.63524 -35.5425,-0.65597 -65.57476,14.83259 -64.80442,52.56841 l 0,64.24394 -75.52293,0 z"
         class="fil0"
         id="_397428208"
         inkscape:connector-curvature="0"
         style="fill:#007f7f;fill-rule:evenodd" />
      <g
         id="g4091">
        <path
           style="fill:#007f7f;fill-rule:evenodd"
           inkscape:connector-curvature="0"
           id="_397426264"
           class="fil0"
           d="m -1558.1084,600.21604 -18.3766,-69.53652 c -0.4529,-1.70892 -2.0484,-2.8655 -3.8151,-2.76196 l -38.5582,2.26376 c -1.7674,0.1065 -3.2173,1.43964 -3.465,3.19465 l -10.1646,71.87402 c -0.2881,2.0353 1.1289,3.91819 3.1631,4.20375 0.1722,0.0268 0.3469,0.0358 0.5208,0.0358 l 78.9447,0 c 2.0548,0 3.7201,-1.66534 3.7201,-3.71978 0,-1.75778 -1.2284,-3.27609 -2.9473,-3.64076 l -9.0219,-1.91547 z" />
        <path
           style="fill:#007f7f;fill-rule:evenodd"
           inkscape:connector-curvature="0"
           id="_179420160"
           class="fil0"
           d="m -1710.5769,679.09336 c -4.6364,10.19302 -8.0196,20.91394 -10.0733,31.92339 l -69.438,18.35074 c -1.7111,0.45462 -2.8665,2.04908 -2.7634,3.81509 l 2.2617,38.5493 c 0.1041,1.76843 1.4393,3.21621 3.1932,3.46643 l 73.0359,10.33477 c 3.9444,10.50338 9.1494,20.48421 15.5012,29.73006 l -36.0857,62.03467 c -0.8907,1.53209 -0.5793,3.47485 0.7441,4.65058 l 28.8655,25.6567 c 1.3234,1.17564 3.2928,1.2543 4.7076,0.19061 l 58.9737,-44.35073 c 10.1848,4.65586 20.8998,8.04891 31.9077,10.10335 l 18.3571,69.45607 c 0.4528,1.71143 2.0484,2.86649 3.8161,2.76339 l 38.5466,-2.26698 c 1.7677,-0.10381 3.2173,-1.43928 3.466,-3.19322 l 10.3305,-73.00966 c 7.5575,-2.82684 14.8481,-6.31806 21.7895,-10.43501 1.766,-1.05026 2.3482,-3.33353 1.3008,-5.09919 -0.6697,-1.1292 -1.8858,-1.82338 -3.2,-1.82338 l -69.0585,0 -20.9565,-61.63465 c -0.3228,-0.95245 -1.018,-1.73057 -1.9258,-2.16317 -27.2274,-12.92769 -38.8196,-45.47966 -25.8916,-72.70388 0.2243,-0.47609 0.4564,-0.94431 0.6945,-1.41235 0.4567,-0.89499 0.5322,-1.93712 0.209,-2.88957 l -29.1089,-85.60435 c -0.2891,-0.84927 -0.8759,-1.56475 -1.6519,-2.0165 l -61.4149,-35.72461 c -1.5297,-0.88954 -3.4757,-0.57721 -4.6513,0.74546 l -25.6386,28.85949 c -1.1757,1.32232 -1.2565,3.29237 -0.1921,4.70722 l 44.3498,58.98993 z" />
        <path
           style="fill:#007f7f;fill-rule:evenodd"
           inkscape:connector-curvature="0"
           id="_180749848"
           class="fil0"
           d="m -1513.9769,609.49625 8.3565,30.30441 c 0.544,1.98106 2.593,3.14534 4.5741,2.59864 1.1562,-0.31859 2.087,-1.17565 2.5033,-2.2992 l 11.2705,-30.60385 44.6225,0 c 1.3252,0 2.5498,-0.70519 3.2163,-1.85031 l 6.5958,-11.33323 c 0.8898,-1.53181 0.5798,-3.47744 -0.7427,-4.65308 l -28.8704,-25.67298 c -1.3223,-1.17851 -3.2924,-1.25717 -4.7076,-0.1933 l -49.1994,37.00943 c -1.6406,1.23515 -1.9697,3.56702 -0.7346,5.20792 0.702,0.93617 1.8015,1.48573 2.9714,1.48573 l 0.1442,0 z" />
        <path
           style="fill:#007f7f;fill-rule:evenodd"
           inkscape:connector-curvature="0"
           id="_179422632"
           class="fil0"
           d="m -1201.4611,1029.7278 29.6213,2.884 c 2.0462,0.1995 3.8639,-1.2969 4.0652,-3.3421 0.092,-0.9716 -0.1984,-1.941 -0.8107,-2.7 -12.3264,-15.2461 -18.9741,-34.30197 -18.8001,-53.90738 l -0.6286,-32.38185 c 0.5635,-1.20616 0.3675,-2.11288 0.025,-3.45328 l 9.0474,-7.46829 c 1.1399,-0.93858 1.6137,-2.46046 1.2136,-3.88059 -4.8763,-17.26504 -3.657,-36.69621 2.2939,-53.7437 0.6775,-1.93748 -0.343,-4.06235 -2.2804,-4.74025 -0.7427,-0.26131 -1.5509,-0.2801 -2.3021,-0.0537 l -40.8075,12.28854 c -6.9332,-6.75102 -14.6501,-12.64749 -22.9822,-17.56162 l 2.1742,-23.09376 c 0.1226,-1.29789 -0.4436,-2.56571 -1.4939,-3.33846 -6.9877,-5.1647 -13.0528,-11.47498 -17.9401,-18.66396 -1.1537,-1.698 -3.4692,-2.13875 -5.1671,-0.98503 -0.6694,0.45461 -1.17,1.11577 -1.4312,1.88038 l -11.0395,32.46481 -119.3532,0 c -2.0544,0 -3.7197,1.6682 -3.7197,3.72265 0,0.36154 0.052,0.72398 0.158,1.07183 l 7.6542,25.39306 c -6.7209,6.93886 -12.5904,14.65297 -17.4829,22.98217 l -61.8848,-5.80143 c -1.7607,-0.16556 -3.3931,0.9333 -3.9075,2.62306 l -9.8475,32.43287 c -0.5117,1.6912 0.2367,3.51073 1.7904,4.35257 l 56.2009,30.42173 c -0.1009,9.61294 0.9521,19.20359 3.1373,28.56676 l -48.4568,40.00597 c -1.3631,1.1253 -1.744,3.0568 -0.9141,4.618 l 15.9618,29.9646 c 0.8299,1.5619 2.6476,2.3216 4.3455,1.8167 l 61.7108,-18.3819 c 6.8896,6.8687 14.574,12.8929 22.8869,17.9453 l -6.098,62.9071 c -0.1715,1.7645 0.9251,3.4047 2.6231,3.9192 l 32.4268,9.8415 c 1.6952,0.5155 3.5182,-0.238 4.359,-1.7986 l 30.7562,-57.2409 c 9.7469,-0.1924 19.4364,-1.5403 28.8676,-4.0135 l 39.9723,48.3922 c 1.1268,1.3625 3.0557,1.7451 4.6176,0.9149 l 29.9753,-15.9487 c 1.5619,-0.8314 2.3237,-2.6489 1.8205,-4.3451 l -18.3563,-61.7002 c 6.8871,-6.879 12.9305,-14.5555 17.9999,-22.8674 z m -60.1818,-49.71353 c -7.6025,25.04113 -34.0674,39.17683 -59.1093,31.57083 -25.0419,-7.6053 -39.1751,-34.06852 -31.5726,-59.1097 7.6053,-25.03805 34.0649,-39.17117 59.104,-31.56865 25.0419,7.60288 39.1779,34.06527 31.5779,59.10752 z" />
        <path
           style="fill:#007f7f;fill-rule:evenodd"
           inkscape:connector-curvature="0"
           id="_179420808"
           class="fil0"
           d="m -1416.8434,850.00317 -0.9822,-2.65574 -14.2284,-19.16994 c -1.2356,-1.64332 -3.5674,-1.97256 -5.2108,-0.73741 -0.5687,0.42777 -1.0042,1.01232 -1.2519,1.67912 l -7.7141,20.81586 -48.6796,0 c -2.0544,0 -3.7197,1.6682 -3.7197,3.72265 0,1.32232 0.7047,2.54691 1.8503,3.21344 l 53.3408,31.03931 c 1.5293,0.88954 3.4749,0.579 4.6502,-0.74278 l 25.6542,-28.87291 c 1.1782,-1.32277 1.26,-3.29282 0.1931,-4.70767 l -1.6299,-2.16846 c -0.5548,-0.7374 -1.3659,-1.24088 -2.2719,-1.41521 z" />
        <path
           style="fill:#007f7f;fill-rule:evenodd"
           inkscape:connector-curvature="0"
           id="_405785520"
           class="fil0"
           d="m -1042.5457,606.43566 c 6.8162,1.14835 13.556,2.70209 20.1872,4.65836 1.4043,0.41345 19.3224,-5.55622 21.6815,-6.31806 1.68693,-0.5441 2.75381,-2.19861 2.55504,-3.95926 l -4.33454,-38.36969 c -0.1987,-1.76028 -1.6083,-3.13478 -3.3743,-3.28959 l -73.4628,-6.39744 c -4.5064,-10.28019 -10.2395,-19.97787 -17.0748,-28.87864 l 32.7344,-63.92571 c 0.8055,-1.57289 0.3919,-3.49937 -0.9931,-4.60377 l -30.212,-24.07888 c -1.3851,-1.102 -3.3576,-1.07756 -4.7129,0.0626 l -56.5355,47.50958 c -10.4379,-4.079 -21.3356,-6.87326 -32.4484,-8.32105 l -22.0733,-68.36374 c -0.544,-1.68449 -2.2011,-2.75382 -3.959,-2.55219 l -38.3697,4.33977 c -1.7578,0.20135 -3.1347,1.61084 -3.2871,3.37434 l -6.3836,73.471 c -10.2773,4.49531 -19.9696,10.22595 -28.8566,17.0695 l -63.9094,-32.70993 c -1.5757,-0.8081 -3.4994,-0.39197 -4.6042,0.99318 l -24.065,30.19567 c -1.102,1.38505 -1.0775,3.35475 0.06,4.71009 l 47.477,56.52731 c -4.0762,10.42973 -6.8762,21.31648 -8.3374,32.42123 l -37.8907,12.22867 c -1.9566,0.63091 -3.0284,2.72903 -2.3998,4.68279 0.4978,1.53746 1.9265,2.57958 3.5401,2.57958 l 6.3751,0 10.3212,30.59284 c 0.6584,1.94562 2.7698,2.99051 4.7155,2.33464 1.1345,-0.38392 2.0164,-1.28975 2.3672,-2.43532 l 9.3441,-30.49225 83.3625,0 c 1.9888,0 3.6272,-1.56717 3.7141,-3.55637 0.5088,-11.46934 4.6477,-22.47869 11.8147,-31.44712 18.7837,-23.53988 53.0936,-27.39568 76.6335,-8.61234 10.8513,8.65843 17.9914,21.13186 19.9643,34.87319 0.2774,1.94813 2.0215,3.34132 3.9809,3.18364 36.519,-2.76733 70.8671,-3.10748 106.4557,2.50333 z" />
        <path
           style="fill:#007f7f;fill-rule:evenodd"
           inkscape:connector-curvature="0"
           id="_182290384"
           class="fil0"
           d="m -878.42203,877.3158 c -10.81059,-0.53873 -21.34377,3.53194 -28.98173,11.20248 l -0.18498,0.19867 c -7.49655,8.71543 -11.91571,19.65677 -12.56882,31.13712 -0.11696,2.05158 1.45027,3.80945 3.5022,3.92633 0.068,0.003 0.1414,0.005 0.20941,0.005 l 75.61826,0 c 2.05436,0 3.71943,-1.66506 3.71943,-3.72228 0,-0.0895 -0.003,-0.17719 -0.009,-0.264 -0.39466,-5.53179 -1.50202,-10.99029 -3.29246,-16.24216 -5.57815,-16.10855 -20.96854,-26.73417 -38.01074,-26.2417 z" />
        <path
           style="fill:#007f7f;fill-rule:evenodd"
           inkscape:connector-curvature="0"
           id="_182290456"
           class="fil0"
           d="m -1062.8092,745.72832 0,-7.88559 c 0,-2.05444 -1.6653,-3.71942 -3.7197,-3.71942 -0.2367,0 -0.4709,0.0179 -0.702,0.0626 -9.0311,1.73058 -18.1442,3.02319 -27.3004,3.87747 l -39.2459,3.69248 c -13.2707,0.76784 -26.7859,6.16602 -26.0758,21.77924 0.8872,19.57283 19.1862,24.77547 34.7233,24.15503 19.6189,-0.78394 43.9833,-2.32408 56.4022,-20.63124 4.1984,-6.2964 6.2748,-13.77105 5.9183,-21.33312 z" />
        <path
           style="fill:#007f7f;fill-rule:evenodd"
           inkscape:connector-curvature="0"
           id="_182290528"
           class="fil0"
           d="m -439.3705,675.85379 c -8.43515,-2.88179 -17.30299,-4.27212 -26.2119,-4.11166 -24.52213,-0.0949 -49.29474,6.85697 -53.46592,35.00107 -0.31858,2.02715 1.06933,3.93169 3.09934,4.25019 0.19062,0.0358 0.38392,0.0448 0.57722,0.0448 l 98.88839,0 c 2.05435,0 3.71969,-1.66498 3.71969,-3.71943 0,-0.0949 -0.003,-0.19061 -0.009,-0.28816 -1.16723,-15.12101 -12.7725,-26.78625 -26.59563,-31.17784 z" />
      </g>
    </g>
    <g
       id="g4076"
       transform="matrix(0.22590958,0,0,0.22590958,218.1818,564.9529)">
      <path
         d="m 404.24274,844.97377 c -4.8735,-2.31307 -9.50734,-5.34404 -13.74375,-9.10731 -20.25842,-18.0216 -24.99303,-47.01183 -13.17289,-70.06166 l -29.10711,-85.60721 -61.41423,-35.7221 -25.64041,28.85948 45.69193,60.77223 c -5.41206,11.35488 -9.07188,23.24581 -11.1401,35.36817 l -71.73514,18.95767 2.26135,38.5493 75.24264,10.65013 c 4.10593,11.58344 9.89645,22.63352 17.18602,32.9137 l -37.28121,64.09154 28.86512,25.65347 60.75836,-45.69372 c 11.35488,5.41769 23.21601,9.12083 35.34937,11.1699 l 18.96304,71.75465 38.54653,-2.26734 10.64477,-75.21786 c 8.03512,-2.84635 15.82012,-6.50053 23.26209,-10.9059 l -71.72413,0 -21.81216,-64.15714 z m 143.95513,-220.73747 -49.19943,37.00907 2.97673,0 9.10732,33.0363 12.17121,-33.0363 47.21587,0 6.59585,-11.33572 -28.86764,-25.67335 z m -84.93782,37.00907 c -3.72793,-0.95495 -7.48028,-1.74972 -11.26235,-2.39173 l -18.96053,-71.74865 -38.55709,2.26385 -10.16322,71.87653 78.94328,0 z m 54.94878,247.88545 53.34117,31.03716 25.65383,-28.87112 -1.6299,-2.16604 -1.91269,0 -1.85846,-5.01767 -13.71153,-18.22564 -8.61485,23.24331 -51.26766,0 z M 748.00815,661.24537 c 0.53337,-11.84206 4.67188,-23.62426 12.62548,-33.60751 20.03809,-25.14535 56.67157,-29.29496 81.82792,-9.26822 12.10571,9.64631 19.33577,23.1292 21.35755,37.33043 15.81198,-1.39078 31.73269,-1.75787 47.59111,-1.75787 19.93178,0 40.0676,0.92238 59.76805,4.29664 6.91156,1.18879 13.85006,2.73439 20.62551,4.76181 l 19.51013,-6.29112 -4.3537,-38.36969 -75.6728,-6.59585 c -4.72888,-11.34136 -11.09616,-22.08144 -18.93011,-31.96974 l 33.81442,-66.03716 -30.2091,-24.07888 -58.2416,48.94358 c -11.6408,-4.79439 -23.72485,-7.79278 -35.94502,-9.19698 l -22.8082,-70.62787 -38.36933,4.34309 -6.57428,75.69162 c -11.34423,4.71286 -22.08395,11.0856 -31.94782,18.91946 l -66.0265,-33.79277 -24.06501,30.19568 48.90814,58.23059 c -4.78347,11.64045 -7.8037,23.71385 -9.21614,35.92337 l -40.15199,12.95748 9.04494,0 11.17805,33.12347 10.14943,-33.12347 86.1107,0 z m 7.02844,375.32503 c -8.19844,27.001 -36.74507,42.2613 -63.75173,34.049 -27.00631,-8.1928 -42.24993,-36.7437 -34.04862,-63.7503 8.19853,-27.00527 36.74507,-42.24611 63.74359,-34.04722 27.00917,8.20274 42.26058,36.74832 34.05676,63.74852 z m 54.63593,44.7015 31.96697,3.1121 c -2.29634,-2.8598 -4.4298,-5.867 -6.40236,-9.023 -8.92807,-14.2866 -12.89511,-30.5121 -13.22184,-47.257 l -0.65866,-33.82819 0.43761,0 c -0.27742,-1.12033 -0.56021,-2.23405 -0.85732,-3.33738 l 10.87333,-8.97308 c -2.17955,-7.55644 -3.18373,-15.45804 -3.18373,-23.49988 0,-11.08944 1.90204,-22.02049 5.54566,-32.48566 l -42.9246,12.92706 c -7.52386,-7.72656 -16.26122,-14.2168 -25.86359,-19.73231 l 2.39987,-25.47207 c -7.34667,-5.44463 -13.67323,-12.00262 -18.80786,-19.56147 l -11.89379,34.99007 -122.02001,0 8.29097,27.50629 c -7.70883,7.52422 -14.12784,16.27008 -19.64621,25.8679 l -64.26837,-6.02328 -9.84749,32.4325 58.19515,31.5006 c -0.15213,11.0328 0.73204,21.7258 3.54008,32.1434 l -50.25247,41.4909 15.95901,29.9647 63.85483,-19.0208 c 7.54015,7.7198 16.13047,14.6423 25.73849,20.1582 l -6.32656,65.2573 32.42686,9.8426 31.79828,-59.1766 c 11.03665,0.145 22.04073,-1.7397 32.44065,-4.5386 l 41.50411,50.2439 29.97812,-15.948 -18.99597,-63.8492 c 7.73613,-7.5358 14.70184,-16.1085 20.22021,-25.7109 z"
         class="fil1"
         id="_406259424"
         inkscape:connector-curvature="0"
         style="fill:#00c9d1;fill-rule:evenodd" />
      <path
         d="m 1020.021,957.76816 c -0.9252,-12.54538 -3.9455,-22.88015 -9.0613,-31.01309 -5.1155,-8.13043 -11.61882,-14.40526 -19.50977,-18.816 -7.91825,-4.41352 -16.3807,-7.4342 -25.44192,-9.05846 -9.06096,-1.62748 -18.82979,-2.44346 -29.27867,-2.44346 -13.7058,0 -25.43628,1.85846 -35.19419,5.57788 -9.75755,3.71442 -17.53718,8.59606 -23.34649,14.6367 -5.80957,6.03813 -9.99175,12.65804 -12.54681,19.86162 -2.55505,7.20035 -3.83137,14.51722 -3.83137,21.95463 0,9.75398 2.20434,18.0003 6.62313,24.73825 4.41352,6.73867 10.10335,12.07985 17.07443,16.02953 6.96866,3.94894 14.22602,6.96964 21.77959,9.05914 7.54793,2.093 17.24311,4.2987 29.08805,6.6199 13.95879,2.7904 24.16282,5.5188 30.66622,8.1908 6.50339,2.6702 9.76856,6.7942 9.76856,12.37 0,4.6452 -2.39415,9.0042 -7.15605,13.0676 -4.76182,4.0645 -12.70736,6.0991 -23.86375,6.0991 -14.39426,0 -24.74255,-2.3843 -31.01452,-7.1451 -6.26947,-4.7619 -9.40424,-11.4399 -9.40424,-20.0371 l -50.1816,0 c 0.23178,11.8495 2.96045,21.9525 8.18788,30.3176 5.22708,8.3633 12.08405,14.985 20.56001,19.8595 8.48159,4.8798 17.83134,8.4238 28.05156,10.6302 10.22273,2.2058 21.01176,3.3109 32.41309,3.3109 8.35371,0 17.11559,-0.8734 26.31293,-2.6135 9.16969,-1.7444 17.93157,-4.9393 26.31257,-9.5821 8.35376,-4.6453 15.21066,-11.2106 20.54406,-19.6898 5.3604,-8.481 8.027,-19.1055 8.027,-31.8826 0,-9.7568 -2.2039,-18.006 -6.6394,-24.7393 -4.4083,-6.73797 -10.2582,-12.0855 -17.578,-16.03098 -7.31974,-3.95227 -14.82982,-6.96973 -22.47584,-9.0623 -7.6734,-2.08988 -17.44223,-4.41468 -29.27866,-6.96973 -13.71431,-2.55506 -23.81489,-5.16792 -30.31828,-7.8378 -6.50868,-2.67336 -9.7547,-6.56461 -9.7547,-11.67516 0,-5.10725 2.02715,-9.40783 6.09237,-12.89198 4.06799,-3.48335 12.02418,-5.22842 23.85811,-5.22842 11.86399,0 19.94556,2.15109 24.21741,6.44738 4.29941,4.30084 7.15641,10.28054 8.54424,17.94606 l 47.75445,0 z m 981.0534,147.91334 -5.4963,0 0,0.2819 -1047.27677,-0.3866 c -29.78465,0 -45.28654,2.1702 -72.62772,-13.5588 -10.86518,-6.2508 -19.71423,-14.8138 -26.35893,-25.4473 -7.3251,-11.7237 -10.43787,-25.0663 -10.70464,-38.7831 l -0.33201,-16.9164 34.53831,0 c -7.26765,-4.9117 -13.3848,-11.14369 -18.25015,-18.57117 -6.64721,-10.13914 -9.33838,-21.80796 -9.33838,-33.83142 0,-9.40819 1.64054,-18.63739 4.78875,-27.50415 3.46142,-9.75433 9.06131,-18.36632 16.2205,-25.81402 1.92647,-2.00263 3.96713,-3.86109 6.10337,-5.59166 -4.67223,0.1933 -9.34438,0.27742 -13.98896,0.28547 -13.60808,0.0268 -27.38476,-0.82958 -40.7752,-3.31975 -11.9236,-2.2149 -23.64056,-6.06785 -34.09748,-12.28281 -10.38892,-6.1713 -18.67748,-14.71536 -24.36445,-25.37114 -6.04064,-11.33572 -8.21482,-24.15217 -8.30727,-36.88646 -0.0179,-1.71707 0.0269,-3.42598 0.12798,-5.11575 l -25.72758,75.67282 -119.99841,0 -23.63241,-63.75988 -23.63482,63.75988 -119.99304,0 -73.00331,-214.7022 124.40404,0 19.46366,70.63324 26.016,-70.63324 93.83573,0 23.84459,70.67109 21.66236,-70.67109 124.03982,0 -6.24754,18.36176 c 5.52365,-4.66651 11.69745,-8.50889 18.27987,-11.53449 13.40681,-6.16074 28.57383,-9.35503 43.15065,-11.17841 19.10721,-2.39173 38.775,-2.94944 58.02369,-2.94944 18.87051,0 38.32611,0.86001 56.96528,4.05707 14.63947,2.51148 29.63225,6.81089 42.42147,14.53602 11.374,6.86225 20.408,16.22265 26.3671,28.03778 l 0,-103.04345 116.1342,0 0,63.71352 105.1957,0 0,7.2868 c 1.0885,-0.51099 2.177,-1.00382 3.2655,-1.48286 8.0543,-3.49937 16.5167,-5.99706 25.1153,-7.77936 10.0406,-2.09266 20.3807,-2.97423 30.6393,-3.00153 12.2446,-0.0358 24.4895,1.3199 36.3259,4.57693 11.4012,3.14283 22.0407,8.23916 31.3465,15.58055 9.5782,7.55107 16.7889,17.21618 21.7413,28.33471 1.1973,2.65565 2.2312,5.37125 3.1021,8.12757 1.4149,-2.45438 2.9385,-4.86249 4.5985,-7.22729 12.8434,-18.39146 30.9111,-30.96807 51.6457,-39.11765 23.9179,-9.39861 50.3393,-12.53053 75.89,-12.59854 16.1089,-0.0447 32.299,1.06942 48.1899,3.77688 14.6937,2.50861 29.1152,6.69115 42.639,13.08295 13.1701,6.24467 24.8704,14.78623 34.6662,25.59682 4.7077,5.20542 8.7892,10.85454 12.245,16.84623 l 0,-52.00221 113.4951,0 0,13.51555 c 8.8437,-5.95383 18.4489,-10.66106 28.6801,-13.74697 10.6391,-3.21344 21.6595,-4.77819 32.7614,-4.74562 4.9252,0.0179 9.8504,0.18256 14.7483,0.54142 4.9794,0.35886 9.9319,0.90073 14.8298,1.62999 l 14.1767,2.09266 0,109.97184 -20.6528,-5.23808 c -4.517,-1.13493 -9.0067,-2.25034 -13.5237,-3.2598 -3.9727,-0.88149 -8,-1.59732 -12.027,-2.11995 -3.9458,-0.50921 -7.9455,-0.73472 -11.9456,-0.74815 -6.2312,-0.0268 -12.4898,0.51995 -18.6391,1.76566 -5.034,1.02333 -9.8231,2.77583 -14.204,5.46414 -3.5646,2.19297 -6.2313,5.14555 -8.2449,8.8136 -2.6121,4.70195 -3.2924,10.86519 -3.2924,16.1465 l 0,9.55092 67.7815,0 19.4555,17.07729 81.9583,0 0,50.17918 233.3029,0 -71.5091,204.315 c -5.034,14.4513 -9.9318,29.5649 -15.864,43.6496 -3.9997,9.4747 -9.1424,19.195 -16.0813,26.8404 -6.6667,7.3375 -14.9112,12.5192 -24.4622,15.1306 -21.7959,5.9407 -46.503,1.367 -69.5776,4.8873 l 0,-73.8704 z m -830.8742,-73.341 c -1.8503,6.2723 -5.7412,11.2054 -11.673,14.8075 -5.9049,3.6021 -12.4898,5.4021 -19.6734,5.4021 -9.061,0 -16.4895,-1.569 -22.3125,-4.7038 -5.7958,-3.1354 -10.1495,-7.0866 -13.061,-11.8484 -2.9115,-4.7629 -4.8979,-9.3469 -5.9321,-13.7647 -1.034,-4.4128 -1.7958,-9.2898 -2.2585,-14.6352 l 127.1827,0 0,-8.70947 c 0,-20.09546 -2.6667,-36.88288 -8.0001,-50.52882 -5.3603,-13.6488 -12.3264,-24.2737 -20.925,-31.82737 -8.5984,-7.54793 -17.8228,-12.83237 -27.7005,-15.73581 -9.8773,-2.90336 -20.0267,-4.35902 -30.4756,-4.35902 -29.3059,0 -58.3124,10.26631 -73.8767,36.5899 -6.0409,10.22102 -10.0679,20.32822 -12.0271,30.31541 -1.9863,9.99032 -2.966,18.93575 -2.966,26.83306 0,18.58492 2.2585,34.38202 6.8028,47.38982 4.5166,13.0092 10.9113,23.4648 19.1562,31.3625 8.2448,7.8994 17.9588,13.6477 29.088,17.2498 11.1564,3.5993 23.5916,5.4008 37.3056,5.4008 8.3537,0 16.6529,-1.0461 24.8978,-3.1355 8.2449,-2.093 16.0816,-5.4582 23.5371,-10.1073 7.4284,-4.6449 14.0406,-10.8025 19.8637,-18.4681 5.7962,-7.667 10.2041,-16.8427 13.2244,-27.5275 l -50.1763,0 z m -73.5227,-56.79979 c 1.3876,-12.54574 5.2788,-22.18499 11.6734,-28.92187 6.3942,-6.73795 15.1561,-10.10514 26.3125,-10.10514 9.2789,0 17.6052,3.07733 24.9251,9.23457 7.3193,6.15439 11.537,16.0852 12.7073,29.79244 l -75.6182,0 z m 268.3234,43.55699 c 0,2.5555 -0.6533,5.6356 -1.9322,9.235 -1.2788,3.601 -3.1837,7.1432 -5.7412,10.6277 -2.5579,3.4856 -5.9864,6.4474 -10.2858,8.8859 -4.2991,2.4371 -9.3331,3.6567 -15.1561,3.6567 -8.5985,0 -15.4829,-2.0303 -20.7344,-6.0952 -5.2245,-4.0677 -9.0613,-9.2342 -11.4831,-15.5076 -2.4487,-6.2723 -3.9455,-12.4296 -4.5439,-18.4694 -0.5718,-6.0403 -0.8707,-12.77825 -0.8707,-20.20779 0,-6.27555 0.6532,-12.54681 1.9321,-18.81807 1.2788,-6.2709 3.374,-12.02132 6.2582,-17.24982 2.9115,-5.22744 6.9115,-9.46627 12.0274,-12.71864 5.1154,-3.25237 11.2648,-4.87877 18.4758,-4.87877 10.204,0 18.231,3.48307 24.0268,10.45272 2.3404,2.79006 4.1361,5.86738 5.4153,9.23457 1.2787,3.37041 2.2581,6.79603 2.9657,10.28054 l 49.4687,0 c -0.9251,-13.70724 -4.2449,-25.26446 -9.9319,-34.67228 -5.687,-9.4064 -12.5981,-16.72336 -20.7343,-21.95321 -8.1358,-5.22985 -16.5986,-8.94399 -25.4419,-11.14824 -8.8161,-2.20962 -17.4146,-3.31403 -25.7683,-3.31403 -15.3467,0 -28.6256,2.49769 -39.9177,7.4937 -11.2652,4.99575 -20.4898,12.02168 -27.7005,21.08264 -7.1837,9.05917 -12.5439,19.85983 -16.027,32.40735 -3.4831,12.54118 -5.2247,26.48225 -5.2247,41.81483 0,10.9173 1.2792,21.6644 3.8368,32.2295 2.5579,10.5721 7.0203,20.4452 13.4149,29.6206 6.3946,9.1793 15.2653,16.5515 26.6665,22.1297 11.3741,5.574 25.3056,8.3629 41.8227,8.3629 15.7818,0 29.1967,-2.673 40.2444,-8.0153 11.02,-5.3422 19.6731,-11.9059 25.9585,-19.6873 6.2586,-7.7839 10.721,-15.6228 13.415,-23.5201 2.6666,-7.9008 4.3536,-14.9828 5.034,-21.2584 l -49.4688,0 z m 250.8816,-117.78168 -48.7611,0 0,106.97928 c 0,7.8977 -1.17,14.5757 -3.5104,20.0374 -2.3127,5.4577 -5.3329,9.8125 -9.061,13.0663 -3.7006,3.2523 -7.7006,5.5768 -12.0001,6.9693 -4.299,1.3946 -8.6527,2.093 -13.0882,2.093 -4.163,0 -8.1084,-0.4681 -11.8364,-1.3957 -3.7279,-0.9301 -6.9661,-2.5554 -9.7417,-4.8799 -6.7481,-5.5729 -10.1221,-14.8669 -10.1221,-27.8748 l 0,-114.99497 -48.7888,0 0,121.96367 c 0,22.7679 5.6871,39.8402 17.0883,51.223 11.3741,11.3846 26.6938,17.0755 45.986,17.0755 12.7888,0 23.9999,-2.673 33.6323,-8.0153 9.6325,-5.3422 17.2517,-13.0081 22.8295,-22.9981 l 0.6802,0 0,26.1347 46.6932,0 0,-185.3841 z m 45.3057,185.38408 48.7887,0 0,-96.52405 c 0,-5.80993 0.6533,-11.26807 1.9319,-16.38033 1.2787,-5.10662 3.483,-9.75469 6.6121,-13.93723 3.129,-4.18254 7.7279,-7.54758 13.7685,-10.10514 6.0407,-2.55505 13.578,-3.83281 22.6393,-3.83281 6.5034,0 11.1564,0.23089 13.9318,0.69803 l 0,-49.48213 c -4.1633,-0.46267 -7.3197,-0.69893 -9.3876,-0.69893 -13.2515,0 -23.4282,3.13442 -30.5031,9.41203 -7.0746,6.2692 -13.8774,15.44453 -20.3807,27.52545 l -0.7079,0 0,-32.0587 -46.6932,0 0,185.38411 z m 137.305,-185.38408 0,185.38408 48.7884,0 0,-185.38408 -48.7884,0 z m 48.7884,-67.25361 -48.7884,0 0,45.30282 48.7884,0 0,-45.30282 z m 101.387,17.07729 -48.7884,0 0,50.17632 -25.0883,0 0,34.84974 25.0883,0 0,112.55004 c 0,6.5073 0.6533,12.1398 1.9318,16.9005 1.2791,4.764 3.6464,8.7722 7.1292,12.0213 7.6736,7.4353 21.2789,11.1522 40.7887,11.1522 l 6.2584,0 c 5.1155,0 12.7888,-0.2318 22.9929,-0.6945 l 0,-36.9374 c -4.6258,0.4626 -7.9997,0.6944 -10.0949,0.6944 -9.2789,0 -14.9931,-0.9872 -17.0883,-2.959 -2.0682,-1.976 -3.1294,-5.9853 -3.1294,-12.0256 l 0,-100.70149 30.3126,0 0,-34.84974 -30.3126,0 0,-50.17632 z m 226.5007,50.17632 -51.5639,0 -37.9859,136.59718 -0.6802,0 -39.7274,-136.59718 -54.3667,0 68.2985,193.04898 c -2.0951,11.8495 -5.4694,19.4569 -10.1225,22.8241 -4.6257,3.3704 -11.9455,5.051 -21.9316,5.051 -3.4831,0 -6.6394,-0.2309 -9.4149,-0.6927 l 0,39.0259 c 9.2789,0.4663 16.5986,0.6972 21.9589,0.6972 11.3741,0 20.272,-0.8699 26.6393,-2.6147 6.3945,-1.74 11.9182,-5.1689 16.5713,-10.2805 4.6258,-5.1108 9.0067,-12.4827 13.0609,-22.1248 4.0542,-9.6427 9.2243,-23.8698 15.5101,-42.6875 l 63.7543,-182.24743 z m -1725.34068,-25.3629 96.567,0 35.1779,-94.9132 35.17791,94.9132 96.5652,0 61.7271,-181.52432 -88.60302,0 -32.85132,107.19046 -0.66939,0 -36.16821,-107.19046 -70.35573,0 -39.4851,107.19046 -0.66939,0 -29.53166,-107.19046 -88.60301,0 61.72181,181.52432 z M 864.2943,749.51674 c 1.05304,-4.36994 2.87606,-7.9076 5.53179,-10.61748 2.70746,-2.76733 5.91303,-4.81354 9.78521,-6.2504 3.82037,-1.43964 8.0217,-2.43532 12.55495,-2.98766 4.54149,-0.49757 9.18357,-0.77588 13.93974,-0.71861 7.9076,0 14.71285,0.60943 20.46542,1.88011 5.75507,1.27346 10.16286,3.20808 13.26506,5.80671 3.15635,2.59864 4.70731,5.9184 4.76181,9.90173 0.0537,3.31976 -0.65328,5.97298 -2.04093,8.07343 -1.44205,2.1008 -3.75477,3.6489 -7.02029,4.75939 -3.26517,1.10477 -7.64083,1.76593 -13.16976,2.10044 l -70.02094,3.3169 c -20.35095,0.93894 -36.8351,3.81508 -49.33546,8.57403 -12.44336,4.80826 -21.56732,11.33895 -27.20793,19.52111 -5.69798,8.24453 -8.5224,17.86642 -8.41072,28.98173 0.0626,11.56179 2.15781,21.29527 6.36164,29.20528 4.20697,7.85301 10.28583,14.21466 18.19835,18.91409 7.90759,4.69917 17.4748,8.13044 28.65007,10.23374 11.16991,2.0463 23.72235,3.09648 37.71668,3.04234 14.65575,0 27.71141,-0.88775 39.05,-2.71319 11.39309,-1.82302 21.34941,-4.58749 29.86608,-8.29375 8.51981,-3.76301 15.86657,-8.46245 22.01629,-14.21466 0.32665,6.63379 1.33333,12.60668 2.99303,17.92092 l 84.95131,0 c -2.0678,-2.93351 -3.8367,-6.63942 -5.3061,-11.11817 -1.4963,-4.47911 -2.2854,-10.17951 -2.34,-17.09394 l 0,-87.60698 c 0.054,-13.49362 -2.1497,-24.88671 -6.5848,-34.23646 -4.3537,-9.34402 -11.3198,-16.86788 -20.7347,-22.56299 -9.44184,-5.69512 -21.68679,-9.84472 -36.67957,-12.38877 -14.96584,-2.6015 -33.0065,-3.87496 -54.13558,-3.8176 -21.84724,-0.0537 -40.48642,0.88418 -55.96925,2.82156 -15.48282,1.93462 -28.20683,5.20014 -38.27438,9.79049 -6.79997,3.15107 -12.61241,7.08026 -17.31149,11.66774 -4.75903,4.53612 -8.62585,10.01091 -11.6135,16.26122 -2.98488,6.30706 -5.31147,13.55063 -6.91407,21.84725 l 82.96213,0 z m 82.29032,51.76791 c -0.0537,7.74142 -1.82302,14.10342 -5.2515,19.13451 -3.42885,4.97937 -7.97275,8.85155 -13.65731,11.67338 -5.69762,2.7616 -11.99975,4.69908 -18.85959,5.80921 -6.91407,1.05063 -13.88264,1.60305 -20.96039,1.54846 -10.28832,-0.0537 -17.97515,-1.93747 -23.1207,-5.53179 -5.19736,-3.65177 -7.74141,-8.68572 -7.74141,-15.04772 0,-5.74935 1.82588,-10.00804 5.58352,-12.8296 3.70349,-2.76447 9.34974,-4.48162 16.98234,-5.08855 14.82158,-1.27068 27.98319,-2.54414 39.37637,-3.70313 11.4041,-1.16464 20.62838,-2.48982 27.64867,-3.92946 l 0,7.9646 z m 107.18238,74.66865 82.9649,0 0,-181.52433 -82.9649,0 0,181.52433 z m 0,-199.4431 82.9649,0 0,-45.79538 -82.9649,0 0,45.79538 z m 107.8357,199.4431 82.9653,0 0,-83.62651 c 0.054,-10.06514 1.7684,-18.25257 5.0882,-24.61458 3.3742,-6.35913 7.8913,-11.06108 13.7143,-14.04882 5.7412,-3.04189 12.326,-4.53334 19.6731,-4.47875 6.5848,0 12.2445,1.10485 16.9794,3.42848 4.7618,2.32659 8.4079,5.86381 10.9658,10.73194 2.5849,4.86249 3.9182,11.06108 3.9182,18.6909 l 0,93.91716 82.9649,0 0,-115.48448 c -0.054,-12.60954 -2.0952,-23.39571 -6.0679,-32.35635 -4.0543,-9.01487 -9.6867,-16.36968 -16.8704,-22.07052 -7.2652,-5.69512 -15.7822,-9.89645 -25.4965,-12.60919 -9.7413,-2.65314 -20.3535,-3.98082 -31.8635,-3.98082 -9.9591,0.0537 -19.1019,0.94144 -27.3191,2.65287 -8.2449,1.71706 -15.4832,3.98082 -21.8501,6.75101 -6.3673,2.76447 -11.728,5.75221 -16.109,8.96028 -4.299,3.14821 -7.5645,6.19332 -9.7139,9.18106 l -0.6802,0 0,-22.56872 -80.2986,0 0,181.52433 z m 336.1325,-113.1604 c 1.4421,-7.58087 4.2721,-13.77141 8.4082,-18.41876 4.163,-4.70194 9.6867,-8.13079 16.5982,-10.28833 6.9116,-2.15503 15.1565,-3.20807 24.7889,-3.15106 9.551,0 17.9047,1.32518 25.0611,3.92382 7.1291,2.54942 12.7616,6.19832 16.8977,10.94948 4.163,4.75904 6.5307,10.39992 7.1564,16.98485 l -98.9108,0 z m 93.2505,58.73657 c -2.9115,3.758 -6.3946,6.79997 -10.3401,9.12361 -3.9728,2.38108 -8.6259,4.09251 -13.9865,5.19727 -5.3603,1.05591 -11.6187,1.60833 -18.8024,1.60833 -9.061,-0.0537 -16.8704,-1.16463 -23.2377,-3.31975 -6.3673,-2.15503 -11.5647,-4.86813 -15.4828,-8.24203 -3.9728,-3.37148 -6.857,-6.96857 -8.6804,-10.72907 -1.823,-3.70877 -2.7209,-7.24644 -2.7209,-10.56324 l 182.5284,0 c 0.2175,-18.08675 -1.8231,-33.73827 -6.1494,-47.01183 -4.2994,-13.27607 -10.558,-24.44598 -18.7483,-33.46076 -8.1903,-9.07187 -18.0134,-16.31545 -29.4689,-21.73851 -11.4558,-5.4202 -24.2174,-9.34688 -38.3399,-11.72233 -14.0949,-2.43532 -29.2514,-3.59995 -45.3326,-3.54259 -27.2922,0.0537 -50.5572,3.87174 -69.8767,11.44733 -19.238,7.58086 -33.9589,18.64203 -44.1357,33.18583 -10.1767,14.54702 -15.3194,32.30176 -15.4282,53.26215 0.054,22.12476 5.4694,40.43469 16.1631,54.97885 10.6664,14.54416 26.2038,25.38456 46.5572,32.51931 20.408,7.19185 45.1969,10.73193 74.3392,10.73193 19.0204,-0.0537 35.8365,-1.49387 50.3396,-4.3157 14.4762,-2.87615 27.0474,-6.97152 37.6051,-12.28003 10.6122,-5.36069 19.401,-11.83393 26.3126,-19.46939 6.9931,-7.62981 12.0001,-16.14649 15.1564,-25.65947 l -88.271,0 z m 105.5223,54.42401 82.9653,0 0,-68.03209 c 0.1091,-9.73312 1.8772,-17.81183 5.3603,-24.1681 3.5372,-6.362 8.2449,-11.33895 14.0953,-14.93327 5.8772,-3.59718 12.4079,-6.08699 19.5916,-7.57845 7.1833,-1.43642 14.5304,-2.15745 22.0131,-2.1033 4.8164,0 9.4967,0.33469 13.9864,0.88685 4.4897,0.60675 9.0067,1.38219 13.4964,2.37822 4.4897,0.99568 9.1697,2.15754 13.9861,3.37399 l 0,-74.33664 c -4.4625,-0.66134 -9.0067,-1.15899 -13.6052,-1.49101 -4.5985,-0.33469 -9.1155,-0.49757 -13.6052,-0.49757 -9.4968,-0.0537 -18.8571,1.32769 -27.9184,4.03793 -9.0883,2.76446 -17.8229,7.07739 -26.1219,12.94119 -8.2991,5.86416 -16.0816,13.43939 -23.265,22.84078 l -0.6801,0 0,-34.84339 -80.2986,0 0,181.52432 z"
         class="fil1"
         id="_406259520"
         inkscape:connector-curvature="0"
         style="fill:#00c9d1;fill-rule:evenodd" />
    </g>
    <g
       id="g4080"
       transform="matrix(0.36803139,0,0,0.36803139,661.62526,536.05803)">
      <path
         d="m -1532.3377,-259.46351 -12.8573,-69.55567 c -0.3143,-1.70043 -1.4212,-2.71275 -2.6454,-2.42433 l -26.2718,6.18235 c -1.1856,0.28028 -2.1557,1.76031 -2.3219,3.54011 l -6.7705,72.62485 c -0.1903,2.04909 0.7494,3.83137 2.1011,3.98374 0.1152,0.0134 0.231,0.0134 0.3469,0 l 54.255,-5.40425 c 1.4598,-0.14426 2.6447,-1.9807 2.6447,-4.10314 0,-1.81523 -0.8749,-3.28995 -2.0962,-3.54011 l -6.3847,-1.30358 z"
         class="fil0"
         id="_406259592"
         inkscape:connector-curvature="0"
         style="fill:#007f7f;fill-rule:evenodd" />
      <path
         d="m -1633.4285,-172.61255 c -2.8857,9.9999 -4.9851,20.4349 -6.2575,31.09068 l -41.8283,18.79435 c -1.0027,0.45175 -1.6795,1.96193 -1.6193,3.61346 l 1.3256,36.089546 c 0.061,1.656844 0.844,3.017474 1.874,3.251689 l 44.1492,10.002403 c 2.4566,10.166082 5.709,19.87755 9.6959,28.930364 l -22.3915,58.821235 c -0.5439,1.431139 -0.354,3.303066 0.4564,4.484042 l 17.8703,26.007859 c 0.8291,1.205434 2.0643,1.385078 2.9529,0.424455 l 37.9374,-40.9708335 c 6.7347,5.0041995 13.8798,8.8079315 21.285,11.3116555 l 12.4976,71.150134 c 0.3103,1.765978 1.4063,3.052894 2.6213,3.072027 l 26.9489,0.4624 c 1.2565,0.02237 2.2887,-1.251495 2.4651,-3.04476 l 7.3928,-74.992517 c 5.4474,-2.636573 10.7373,-5.9917227 15.8009,-10.037841 1.2951,-1.0314548 1.7224,-3.4012108 0.9525,-5.29262876 -0.4897,-1.20543408 -1.3798,-1.96972254 -2.34,-2.01614154 l -49.0329,-2.2503482 -14.3333,-62.7719915 c -0.2197,-0.960587 -0.691,-1.749682 -1.3054,-2.19047 -18.2328,-13.006703 -25.8753,-45.272758 -17.3476,-72.575988 0.1488,-0.47628 0.3018,-0.94961 0.4602,-1.42299 0.304,-0.90355 0.354,-1.94562 0.1393,-2.8846 l -19.091,-83.59349 c -0.1871,-0.82171 -0.5676,-1.49102 -1.0693,-1.88822 l -38.8101,-30.75339 c -0.9429,-0.74591 -2.1405,-0.31035 -2.8633,1.04209 l -15.6037,29.18613 c -0.708,1.32484 -0.7568,3.19712 -0.1159,4.48156 l 27.1839,54.4701 z"
         class="fil0"
         id="_397377824"
         inkscape:connector-curvature="0"
         style="fill:#007f7f;fill-rule:evenodd" />
      <path
         d="m -1500.6436,-253.08996 6.1334,31.22392 c 0.4026,2.04909 1.9155,3.14822 3.3796,2.45976 0.8543,-0.4053 1.5453,-1.36027 1.8503,-2.57137 l 8.397,-33.07988 34.0461,-3.39023 c 1.0311,-0.10345 1.9835,-0.95775 2.5033,-2.24787 l 5.1591,-12.80794 c 0.6991,-1.73303 0.4571,-3.81472 -0.5825,-4.97657 l -22.3505,-25.00404 c -1.0123,-1.13173 -2.5143,-1.02578 -3.5918,0.24771 l -36.6827,43.32176 c -1.1973,1.4152 -1.4393,3.87495 -0.5386,5.50204 0.5141,0.92516 1.3195,1.42051 2.1738,1.33335 l 0.1035,-0.0107 z"
         class="fil0"
         id="_397377896"
         inkscape:connector-curvature="0"
         style="fill:#007f7f;fill-rule:evenodd" />
      <path
         d="m -1237.1805,227.55158 29.1997,8.04896 c 2.0462,0.56585 3.8721,-0.98503 4.0705,-3.4611 0.095,-1.17849 -0.196,-2.41086 -0.8107,-3.437 -12.2938,-20.45405 -18.8599,-44.53821 -18.6884,-68.3283 l -0.6204,-39.38729 c 0.5552,-1.40953 0.3621,-2.53063 0.022,-4.19315 l 8.9493,-8.22576 c 1.1293,-1.03961 1.603,-2.85165 1.203,-4.62294 -4.8356,-21.461094 -3.6273,-45.033546 2.2829,-65.444372 0.6803,-2.331848 -0.3401,-4.98223 -2.2695,-5.920856 -0.7374,-0.359306 -1.5399,-0.427319 -2.2882,-0.193121 l -39.6839,12.451502 c -6.5877,-8.457145 -13.8692,-15.885717 -21.6733,-22.133259 l 2.0328,-27.2104377 c 0.1141,-1.5321208 -0.4163,-3.0504242 -1.3961,-4.0053462 -6.5005,-6.3237251 -12.106,-13.9265811 -16.5986,-22.4868371 -1.0583,-2.01897 -3.1779,-2.588025 -4.7288,-1.273465 -0.6098,0.514125 -1.0694,1.273465 -1.3065,2.160347 l -10.0105,37.4771074 -101.9687,-4.6828285 c -1.6625,-0.076067 -3.0065,1.6922828 -3.0065,3.9507747 0,0.3975188 0.043,0.7972748 0.1276,1.1866499 l 6.1933,28.3014215 c -5.4393,7.278997 -10.1632,15.415084 -14.0843,24.242202 l -48.1545,-9.940027 c -1.3305,-0.275006 -2.5661,0.797275 -2.9551,2.568533 l -7.4013,33.773704 c -0.3837,1.752519 0.1769,3.733222 1.3415,4.740228 l 43.1695,37.27835 c -0.079,10.42721 0.7483,20.94696 2.4736,31.34653 l -37.4474,37.56427 c -1.0311,1.03393 -1.3196,3.04228 -0.691,4.80542 l 12.1497,34.06213 c 0.6392,1.79043 2.0324,2.85733 3.3384,2.54976 l 48.7913,-11.47211 c 5.6165,8.54962 11.9182,16.33174 18.7862,23.17815 l -5.0421,69.00048 c -0.1414,1.93216 0.7646,3.95361 2.1632,4.8327 l 27.2051,17.1156 c 1.4449,0.90885 2.9987,0.41067 3.7172,-1.19481 l 26.6633,-59.66987 c 8.6095,1.41767 17.2435,1.50483 25.7251,0.23956 l 36.7997,64.2928 c 1.0555,1.84783 2.8704,2.6968 4.3398,2.03279 l 28.661,-12.96849 c 1.5183,-0.68568 2.2557,-2.72657 1.766,-4.87345 l -17.6815,-77.41683 c 6.5987,-7.13727 12.4242,-15.41759 17.3359,-24.65816 z m -56.7994,-67.0442 c -6.9442,28.37266 -30.7399,41.34643 -52.7204,29.41469 -21.4774,-11.65709 -33.3875,-42.94652 -26.9985,-70.29585 6.43,-27.531443 29.1645,-41.550468 51.1915,-30.919212 22.5548,10.889616 35.5233,43.221172 28.5274,71.800372 z"
         class="fil0"
         id="_397377968"
         inkscape:connector-curvature="0"
         style="fill:#007f7f;fill-rule:evenodd" />
      <path
         d="m -1426.5362,2.063038 -0.7809,-2.93349531 -11.2407,-21.28389969 c -0.9713,-1.812398 -2.7971,-2.2259 -4.0816,-0.930822 -0.4464,0.449244 -0.7837,1.066884 -0.9769,1.785111 l -6.0027,22.23098287 -36.9626,-1.6979475 c -1.5268,-0.0706978 -2.762,1.62743758 -2.762,3.79062163 0,1.3957098 0.5223,2.712748 1.3713,3.4582613 l 40.5194,35.5180607 c 1.1891,1.042087 2.7046,0.813563 3.6245,-0.555201 l 20.2475,-30.179032 c 0.9386,-1.4013743 1.0038,-3.55109 0.1548,-5.1402612 l -1.3033,-2.4296434 c -0.4408,-0.8273438 -1.0856,-1.4095271 -1.8067,-1.6327533 z"
         class="fil0"
         id="_397402840"
         inkscape:connector-curvature="0"
         style="fill:#007f7f;fill-rule:evenodd" />
      <path
         id="path3242"
         d="m 42.574035,203.2172 0,71.19909 c 0,2.08417 1.145573,3.52913 2.555056,3.22724 0.105599,-0.0224 0.212093,-0.0546 0.315903,-0.0982 6.854201,-2.74004 13.705806,-4.70728 20.497632,-5.89357 8.843406,-1.2926 17.605196,-4.31042 26.067728,-8.9525 13.594566,-7.70596 22.726406,-28.79147 27.496366,-48.65229 3.59995,-14.61217 6.90342,-29.28143 9.91559,-43.99392 l 42.98447,-198.063152 c 0.39734,-1.828694 -0.20135,-3.795937 -1.33619,-4.397236 -0.23357,-0.122603 -0.47609,-0.179608 -0.72129,-0.171465 l -147.514194,4.598493 0,-47.708429 c 0,-2.108621 -1.172868,-3.817549 -2.620294,-3.817549 l -58.845666,0.04922 -14.00238,-17.313992 c -0.522627,-0.644872 -1.19193,-1.004169 -1.885753,-1.012322 l -50.720513,-0.484325 0,-6.601163 c -0.16019,-5.45846 0.65328,-10.87047 2.36193,-15.77403 4.685659,-12.55218 20.829647,-15.22948 30.067708,-14.52465 l 9.077245,1.06122 9.044939,2.4842 25.828161,9.69769 c 1.491098,0.56057 2.993383,-0.68845 3.363338,-2.7861 0.0537,-0.30758 0.08054,-0.62607 0.08054,-0.94429 l 0,-116.14582 c 0,-1.94846 -1.006684,-3.6953 -2.367304,-4.10881 l -10.740077,-3.26267 -11.327584,-2.83817 c -19.205384,-4.57688 -40.103041,-1.91268 -57.555916,10.79466 l 0,-7.36333 c 0,-2.27196 -1.36027,-4.24204 -3.04189,-4.40007 l -97.88788,-9.21328 c -1.86911,-0.17432 -3.38741,1.62992 -3.38741,4.03264 l 0,46.34494 c -29.22694,-51.71905 -81.1529,-66.86737 -130.46348,-72.0863 -49.3139,-5.21892 -112.26281,4.40007 -145.28766,56.8349 l -0.82421,1.40137 c -12.29095,-33.23228 -37.51254,-57.99953 -68.9951,-69.74629 -37.5887,-14.47051 -84.53494,-16.49757 -123.74271,-3.54826 l 0,-2.31272 c 0,-2.98523 -2.35093,-5.62711 -5.25437,-5.90207 l -68.75026,-6.47077 -78.6875,7.40407 0,-87.01383 c 0,-2.97956 -2.33751,-5.0857 -5.21357,-4.70479 l -152.1015,20.17126 c -2.51681,0.33452 -4.55491,2.85696 -4.55491,5.63526 l 0,121.96542 c -18.10303,-24.82121 -48.39403,-35.83871 -76.12423,-37.85521 -21.4582,-1.78759 -42.7315,-1.46125 -63.5994,0.91169 -35.0854,3.49369 -84.9078,9.65974 -113.8191,34.50574 l 2.3591,-8.8625 c 0.6368,-2.39173 -0.3674,-4.83803 -2.234,-5.45598 -0.37,-0.12224 -0.7593,-0.16582 -1.1509,-0.12752 l -112.1948,10.55196 c -1.3932,0.13075 -2.6202,1.45063 -3.0284,3.25452 l -15.4147,68.15434 -16.705,-65.29448 c -0.4188,-1.6409 -1.5806,-2.66102 -2.8895,-2.53594 l -73.7407,6.93601 c -1.1756,0.11159 -2.223,1.24086 -2.6284,2.82967 l -16.3998,64.34775 -12.0108,-61.40609 c -0.3213,-1.65436 -1.3879,-2.72125 -2.6043,-2.60681 l -85.7662,8.06526 c -1.3444,0.12788 -2.4329,1.87759 -2.4329,3.91003 0,0.40289 0.044,0.79727 0.1283,1.17283 l 49.1229,214.267274 c 0.3557,1.550905 1.3383,2.625942 2.4456,2.669524 l 87.7509,3.5454257 c 1.2001,0.04922 2.2719,-0.9467697 2.6883,-2.5005027 l 15.6844,-58.334046 15.9615,59.566426 c 0.4326,1.6136203 1.5485,2.7184219 2.7946,2.7701476 l 101.6313,4.103491 c 1.4258,0.059959 2.694,-1.0668842 3.1539,-2.7974333 l 17.5641,-66.0481653 c 8.645,68.8317812 63.0796,82.121634 110.7093,83.079366 -14.5304,18.026877 -21.1914,41.033567 -21.4147,66.298293 -0.2012,22.791554 6.615,44.25014 20.8516,61.87986 l -24.0732,-2.58803 c -2.0491,-0.22041 -3.7034,1.63275 -3.7034,4.14177 0,0.0268 0,0.0573 0,0.0868 l 0.3264,20.6231 c 0.2533,35.18847 14.226,66.70933 39.4145,88.57295 10.4216,9.05031 24.019,18.27495 36.4595,22.13854 14.2803,4.17967 28.8514,7.17022 43.5968,8.92238 l 339.849,57.69732 796.39066,-134.69193 c 0.39197,-0.28028 0.808103,-0.44647 1.224594,-0.49256 z"
         style="fill:#007f7f;fill-opacity:1;fill-rule:evenodd"
         inkscape:connector-curvature="0" />
      <path
         d="m -1069.8351,-299.99038 c 7.8094,0.71289 15.5891,1.97539 23.295,3.7931 1.6381,0.38624 22.7671,-9.66538 25.5833,-10.9715 2.0137,-0.93579 3.2925,-3.28144 3.0533,-5.61329 l -5.1757,-50.71237 c -0.2367,-2.31838 -1.9155,-3.93732 -4.0135,-3.86929 l -83.8873,2.70177 c -4.939,-12.49222 -11.189,-23.98599 -18.5931,-34.22259 l 35.9344,-88.09703 c 0.9007,-2.20925 0.4379,-4.61196 -1.1076,-5.74121 l -33.1752,-24.23657 c -1.4939,-1.09133 -3.6216,-0.6176 -5.0801,1.13209 l -59.1015,70.8617 c -10.5494,-3.12129 -21.4472,-4.55527 -32.4403,-4.30227 l -21.4855,-78.14851 c -0.5223,-1.90488 -2.1171,-2.82436 -3.8041,-2.20429 l -36.13,13.298 c -1.6274,0.59846 -2.8952,2.54126 -3.0369,4.64491 l -5.8638,87.35399 c -9.3685,6.90058 -18.1222,15.08281 -26.0787,24.35058 l -55.3244,-27.44992 c -1.3223,-0.65838 -2.9388,0.10873 -3.8611,1.83118 l -19.9289,37.15896 c -0.9036,1.68413 -0.8845,3.86361 0.049,5.21078 l 39.7356,57.40325 c -3.4802,12.23923 -5.8613,24.81906 -7.1022,37.48525 l -31.6104,17.07201 c -1.6027,0.86529 -2.4814,3.27614 -1.9644,5.38759 0.4054,1.66004 1.5753,2.6968 2.9033,2.56605 l 5.2463,-0.52226 8.563,33.32471 c 0.5467,2.13059 2.3074,3.15921 3.9345,2.29393 0.9525,-0.50347 1.6927,-1.57817 1.9864,-2.88707 l 7.8693,-34.95749 73.2918,-7.30062 c 1.823,-0.18247 3.325,-2.16886 3.404,-4.50601 0.468,-13.49112 4.2693,-26.83762 10.8978,-38.17093 17.5754,-30.11415 50.5164,-39.22433 73.7626,-19.44495 10.9003,9.27636 18.1385,23.79573 20.1465,40.54664 0.2831,2.37543 2.0625,3.91535 4.0652,3.51283 38.0596,-7.4094 75.1718,-11.72797 115.0433,-8.57124 z"
         class="fil0"
         id="_182317600"
         inkscape:connector-curvature="0"
         style="fill:#007f7f;fill-rule:evenodd" />
      <path
         d="m -864.69411,66.995878 c -14.70435,-1.68413 -28.85412,3.191802 -39.0117,13.33594 l -0.24199,0.261493 c -9.88293,11.531624 -15.6653,26.402159 -16.52244,42.377539 -0.15231,2.85732 1.89672,5.4992 4.57972,5.90491 0.0924,0.0134 0.18497,0.0242 0.27742,0.0322 l 103.51147,9.38232 c 2.9413,0.2665 5.33304,-1.95944 5.33304,-4.97161 0,-0.13039 -0.005,-0.26113 -0.0179,-0.39439 -0.56827,-8.16057 -2.15781,-16.29388 -4.7211,-24.18761 -7.95646,-24.130247 -29.6351,-40.981839 -53.19127,-41.74117 z m 53.38134,154.517752 56.27433,7.03416 6.13594,-0.76748 c -24.23934,70.70125 -98.27358,76.39636 -158.8366,47.12871 -13.54812,-6.64759 -25.79558,-16.27724 -35.85535,-28.13023 -31.09631,-37.36023 -36.03783,-100.49117 -27.73584,-143.63923 5.97825,-31.06338 22.68282,-59.517473 50.22805,-72.412671 28.60651,-13.392946 65.88486,-13.836553 98.31745,-2.530625 60.81545,21.202374 79.68882,86.399126 78.89969,143.369866 l -0.003,7.59471 -11.15075,1.17815 -162.39295,-17.14002 c -2.68582,-0.28306 -4.85715,1.81487 -4.85715,4.68565 0,0.13889 0.005,0.27742 0.0134,0.41918 3.11563,41.68658 21.6407,71.31596 63.35452,76.26033 19.16708,2.27196 39.77881,-4.18782 47.60739,-23.05018 z M 153.37197,-9.2722431 115.25276,164.69905 c -2.99302,14.37233 -6.25282,28.71245 -9.77133,43.00613 -3.03947,12.47593 -8.397297,27.65153 -17.414584,32.87047 -9.485772,5.49104 -19.270622,6.18766 -29.131629,7.67585 l 0,-31.38438 c 10.119636,-0.53078 21.754801,-4.60133 25.218727,-21.91285 1.012322,-4.41353 1.763151,-8.90856 2.242196,-13.43375 0.06264,-0.62044 0.02685,-1.24086 -0.109179,-1.80142 L 41.710805,-4.1642073 72.981089,-5.5957045 98.395801,124.6342 c 0.296215,1.52114 1.232649,2.47358 2.293919,2.33468 1.19972,0 2.31836,-1.23236 2.73467,-3.01464 L 126.84703,-8.0583253 153.37179,-9.271903 z M 5.7575494,-54.566922 l 0,48.1874737 c 0,2.1305825 1.1947936,3.8037321 2.6666512,3.7385379 l 18.8269264,-0.8624242 0,28.0732196 L 8.4242006,25.74236 C 6.952343,25.8348 5.7575494,27.636257 5.7575494,29.769676 l 0.00814,104.730354 c 0.1360262,5.36314 0.2908455,10.6965 2.9172258,14.3727 3.1780018,4.45427 13.9563808,2.43531 18.5682968,1.35779 l 0,30.03764 -18.1250482,3.42849 c -4.6339306,0.78913 -9.28942853,0.94713 -13.9017918,0.46804 -5.0856809,-0.37273 -9.885439,-2.75633 -13.882641,-6.90873 -4.811123,-5.34967 -5.850381,-17.42031 -5.793286,-26.66902 l 0,-118.869923 c 0,-2.1685 -1.240881,-3.847314 -2.772698,-3.752355 l -16.084118,1.00169 0,-29.24322482 16.084118,-0.73489968 c 1.531817,-0.070698 2.772698,-1.8857442 2.772698,-4.054244 l 0,-49.0363845 30.2091007,-0.465263 z m -76.0424244,-17.330279 0,41.01191 -32.973925,0.922321 0,-41.768377 32.973925,-0.165827 z m -32.973925,74.3635747 32.973925,-1.50732288 0,192.76259918 -32.973925,5.06409 0,-196.3189726 z m -118.8037,214.5554363 0,-209.1242309 35.51806,-1.6217638 0,32.6905057 c 0,2.37295 1.48,4.19597 3.3006,4.079042 1.43401,0.05727 2.81091,-0.944291 3.5536,-2.593341 4.35364,-11.602501 10.14407,-22.162969 17.09393,-31.20764 7.88809,-9.7660573 18.99276,-10.9140471 28.72588,-10.367347 l 0,47.014605 c -2.85413,-0.114459 -5.72778,-0.03043 -8.60921,0.250127 -18.82979,1.197282 -35.60236,11.597221 -40.41312,38.111061 -1.23024,6.625973 -1.83403,13.371379 -1.79322,20.081682 l 0,106.94884 -37.37652,5.73872 z m -49.8606,-206.841317 0,214.492787 -38.80766,5.95913 0,-27.54809 c -0.19061,-2.77264 -2.20962,-4.57936 -4.51168,-4.0298 -1.35248,0.32101 -2.56857,1.41236 -3.26266,2.92536 -15.84178,35.97473 -49.28374,50.30957 -79.8057,44.17362 -8.691,-1.87759 -16.65284,-6.29112 -23.19695,-12.89269 -13.83942,-14.16579 -18.24479,-38.3449 -18.08675,-60.79379 l 0,-154.61888 46.12453,-2.108622 0,142.284342 c -0.19867,31.62144 12.7428,46.83741 37.99696,43.30547 28.61464,-4.00251 43.01991,-31.67568 42.63331,-62.32024 l 0,-126.959015 40.9166,-1.86909 z m -268.27416,173.379757 51.0008,-5.96975 c -8.62863,57.41417 -46.84842,95.09844 -100.07773,102.61926 l -0.28547,0.0456 c -76.25461,13.19169 -111.78404,-37.51782 -111.95765,-112.36841 -0.0805,-36.4297 6.59298,-76.442803 28.97359,-107.119762 28.75881,-39.422731 79.59101,-49.025109 119.06233,-40.026526 37.05265,8.448643 61.624,36.364198 65.10959,77.879226 l -51.77893,4.212272 c -5.60553,-26.459604 -21.76858,-40.151987 -45.27311,-38.135846 -56.18152,4.816403 -58.96791,72.486326 -55.13412,114.828516 2.94694,32.51931 19.24897,60.26302 53.96125,54.7068 21.989,-3.5185 36.85139,-18.98747 44.1304,-41.06328 1.06656,-3.14042 1.8283,-6.36199 2.26914,-9.60837 z m -476.47934,-97.587817 -47.6672,-3.591845 c -3.1267,-15.714162 -11.2436,-28.52497 -25.0448,-31.896094 -13.2459,-3.235384 -15.5346,-2.571728 -28.0105,-2.410859 -13.8065,0.17397 -24.0434,9.999897 -23.8882,25.305534 0.098,9.493915 5.8667,16.549649 13.0858,20.228354 10.8733,5.592038 22.2282,10.005537 33.915,13.161967 l 32.9332,11.97532 c 15.9044,6.12779 34.9571,18.01346 44.4563,35.56693 5.6516,10.44601 7.0476,19.99979 7.2517,31.50698 0.4734,14.10619 -2.6557,27.59695 -8.9904,38.8431 -22.3997,38.60917 -79.8574,32.41058 -115.2312,18.1442 -29.7411,-11.99438 -54.383,-36.2501 -56.2308,-74.67115 l 44.4621,5.42549 c 1.5268,19.12386 14.098,31.71676 28.9821,36.50309 11.0338,3.54578 21.3575,5.51018 32.5356,5.04495 13.0829,-0.54705 25.0308,-9.3986 25.6977,-24.9873 0.4299,-10.08178 -6.2666,-18.67211 -13.9673,-22.72354 -11.5044,-6.15258 -23.2376,-11.09124 -35.0499,-14.77272 -10.6037,-3.5022 -21.0255,-7.41506 -31.2484,-11.72797 -14.6529,-6.27447 -30.3044,-16.94367 -38.5358,-33.27828 -8.2393,-16.359032 -7.4201,-37.580557 -2.5005,-54.132713 10.2284,-34.396918 42.296,-45.4360738 71.8439,-43.6077738 10.6476,0.5662088 21.3821,2.0600728 32.114,4.4872368 32.5112,7.694987 55.515,32.23625 59.0878,71.607254 z"
         style="fill:#e6e6e6;fill-rule:evenodd"
         id="_182317456"
         inkscape:connector-curvature="0" />
      <path
         d="m -309.895,-201.47159 c -8.52768,-4.06274 -17.57513,-6.34038 -26.74518,-6.7103 -25.66519,-1.70893 -52.25519,5.5155 -56.79945,41.24862 -0.34812,2.58236 1.1675,5.07471 3.37676,5.56723 0.20941,0.0456 0.41882,0.0734 0.62823,0.0814 l 102.3311,3.90471 c 2.01901,0.0761 3.65454,-1.88007 3.65454,-4.36995 0,-0.11697 -0.003,-0.23384 -0.009,-0.35116 -1.14549,-18.39147 -12.60668,-33.19112 -26.43518,-39.37065 z m 18.97306,115.425244 77.09833,0.198402 c -18.00808,54.63628 -77.20178,65.863187 -120.40917,67.172082 -28.11107,0.851775 -50.21176,-1.458425 -78.40185,-11.246059 -19.89348,-6.862658 -37.70567,-20.794205 -50.91901,-40.029389 -14.34826,-21.583694 -17.70587,-45.02254 -18.10062,-70.31751 -0.55752,-24.17419 5.53744,-47.64033 17.35221,-66.99525 12.32362,-18.47048 29.19678,-31.79541 48.29871,-38.33139 24.19576,-8.28033 49.21286,-11.03951 73.75414,-8.32108 15.48032,1.42299 30.70443,4.13609 45.56432,8.09254 23.65397,6.48672 47.60211,20.25807 63.20468,43.32463 15.98344,23.62668 22.3125,57.7324 22.14104,88.18106 l -178.09861,-3.08834 c -2.23656,-0.0376 -4.05421,2.06007 -4.05421,4.68849 0,0.0358 0,0.068 0,0.10346 0.10381,5.434 1.26808,10.78088 3.40119,15.613213 10.3294,23.586323 33.79849,30.859699 53.78442,30.66085 17.23819,-0.171106 34.02418,-3.180821 45.3847,-19.705727 z m -801.79776,-31.429044 0,-10.20402 c 0,-2.65819 -1.8585,-4.76716 -4.1496,-4.71259 -0.2611,0.008 -0.5223,0.043 -0.7781,0.10596 -9.9999,2.46543 -19.9945,4.34834 -29.9427,5.65723 l -41.594,5.50984 c -13.6949,1.21641 -27.4553,8.12514 -26.7399,27.338674 0.9007,24.100448 19.6079,30.668994 35.7629,30.032266 20.7672,-0.821706 47.145,-2.590504 60.8484,-26.108447 4.6746,-8.155256 6.9902,-17.844763 6.593,-27.618963 z m -94.9078,-66.86951 -74.2605,3.76051 c 4.3158,-23.1863 13.2708,-41.95058 31.5291,-53.21293 11.6514,-6.97959 24.1248,-11.89093 37.02,-14.54138 18.8951,-4.0135 38.2443,-6.80526 57.9719,-8.32109 30.1577,-2.45692 70.4756,-4.2392 100.1135,12.48166 23.091,13.02836 30.8079,41.97743 30.3945,69.71623 l 0,118.107459 c -0.09,11.267716 1.5864,22.840506 5.99989,33.183332 l -88.54029,-2.288614 c -1.3525,-6.119633 -2.1387,-12.367201 -2.351,-18.642038 -0.09,-2.661022 -2.0246,-4.76184 -4.3182,-4.693809 -0.985,0.02685 -1.9212,0.462758 -2.6451,1.22173 -25.4089,26.658369 -63.768,29.49899 -94.0478,28.454094 -25.4721,-0.878712 -66.0783,-5.042117 -79.4688,-38.189992 -7.3438,-18.176417 -8.0649,-47.182942 1.6548,-64.464262 6.0785,-10.2068 14.4839,-17.99717 24.1628,-22.33444 15.1154,-6.81625 31.1668,-10.82974 47.624,-11.83106 l 73.4495,-6.94699 c 13.2923,-1.13209 29.1967,-5.49105 28.3995,-25.39306 -1.0311,-25.70305 -31.8798,-25.38983 -46.0728,-24.44024 -17.0068,1.13456 -40.3072,4.9468 -46.6118,28.37507 z m 997.5726,152.861094 0,-201.208754 62.82908,4.99853 0,34.78844 c 0,2.29677 1.38506,4.23957 3.09397,4.34019 1.14844,0.18247 2.26672,-0.36459 3.02319,-1.48287 10.89212,-17.42846 22.244493,-29.78465 38.519227,-35.29765 6.867983,-2.28295 13.948238,-3.11845 21.009252,-2.49236 10.617475,1.17815 8.704516,0.99319 18.092116,3.20811 l 0,70.72281 c -9.406393,-4.00003 -19.188738,-6.4651 -29.150333,-7.32223 -28.353502,-1.99735 -53.017302,14.18736 -52.377792,56.33957 l 0,71.724124 -65.03871,1.681651 z m -631.98416,12.88419 0,-253.716674 66.99775,-5.32522 39.6538,3.15354 0,27.78192 c 0,3.02881 2.41366,5.64377 5.38225,5.83688 1.95914,0.28315 3.87496,-0.37031 5.18922,-1.76598 23.11247,-26.55492 67.23724,-32.74787 99.32144,-30.11379 13.70339,1.07999 27.19701,3.99967 40.16577,8.65273 38.63897,14.07084 57.26186,47.87175 56.86183,90.01268 l 0,150.836095 -95.61033,2.473225 0,-126.7684 c 0.55842,-32.66607 -16.69642,-52.60349 -47.97198,-53.9829 -39.28134,-1.73622 -60.33426,25.47735 -59.49054,66.04816 l 0,117.484608 -43.50146,1.123577 -66.99775,-1.730549 z m -143.81642,-277.033534 0,-52.55992 98.83648,-11.6706 0,54.85383 -98.83648,9.3766 z m 0,273.313396 0,-238.560486 98.83648,-7.85833 0,248.973657 -98.83648,-2.555074 z m -568.25852,-14.690834 -40.6456,-175.453262 55.824,-4.43834 20.8597,107.83838 c 0.3264,1.68732 1.4039,2.84349 2.6366,2.8272 1.2951,0.12788 2.5197,-0.91134 3.0667,-2.60681 l 28.9764,-112.47491 51.1316,-4.06522 28.998,114.67638 c 0.4273,1.68449 1.6111,2.80559 2.9469,2.78645 1.5346,0.1414 2.9743,-1.07751 3.543,-3.004 l 27.3192,-119.4543 72.4647,-5.76035 -53.7111,204.389266 -77.2996,-1.997 -27.4148,-101.163246 c -0.563,-2.07602 -2.2476,-3.08834 -3.7605,-2.26665 -0.7973,0.4326 -1.4259,1.32271 -1.7196,2.43 l -26.4433,99.465601 -66.7724,-1.72807 z"
         style="fill:#e6e6e6;fill-rule:evenodd"
         id="_409723376"
         inkscape:connector-curvature="0" />
    </g>
    <g
       id="g4070"
       transform="matrix(0.37915533,0,0,0.37915533,-85.817834,242.03874)">
      <path
         inkscape:connector-curvature="0"
         style="fill:#00c9d1;fill-opacity:1;fill-rule:evenodd"
         d="m 1959.7169,123.2172 0,71.19909 c 0,2.08417 1.1456,3.52913 2.555,3.22724 0.1056,-0.0224 0.2121,-0.0546 0.316,-0.0982 6.8542,-2.74004 13.7058,-4.70728 20.4976,-5.89357 8.8434,-1.2926 17.6052,-4.31042 26.0677,-8.9525 13.5946,-7.70596 22.7264,-28.79147 27.4964,-48.65229 3.5999,-14.61217 6.9034,-29.28143 9.9156,-43.99392 l 42.9844,-198.06315 c 0.3974,-1.8287 -0.2013,-3.79594 -1.3362,-4.39724 -0.2335,-0.1226 -0.476,-0.17961 -0.7212,-0.17146 l -147.5142,4.59849 0,-47.70843 c 0,-2.10862 -1.1729,-3.81755 -2.6203,-3.81755 l -58.8457,0.0492 -14.0024,-17.31399 c -0.5226,-0.64487 -1.1919,-1.00417 -1.8857,-1.01232 l -50.7205,-0.48433 0,-6.60116 c -0.1602,-5.45846 0.6532,-10.87047 2.3619,-15.77403 4.6856,-12.55218 20.8296,-15.22948 30.0677,-14.52465 l 9.0772,1.06122 9.045,2.4842 25.8281,9.69769 c 1.4911,0.56057 2.9934,-0.68845 3.3634,-2.7861 0.054,-0.30758 0.081,-0.62607 0.081,-0.94429 l 0,-116.14582 c 0,-1.94846 -1.0067,-3.6953 -2.3673,-4.10881 l -10.7401,-3.26267 -11.3275,-2.83817 c -19.2054,-4.57688 -40.1031,-1.91268 -57.556,10.79466 l 0,-7.36333 c 0,-2.27196 -1.3602,-4.24204 -3.0419,-4.40007 l -97.8878,-9.21328 c -1.8691,-0.17432 -3.3874,1.62992 -3.3874,4.03264 l 0,46.34494 c -29.227,-51.71905 -81.1529,-66.86737 -130.4635,-72.0863 -49.3139,-5.21892 -112.2628,4.40007 -145.2877,56.8349 l -0.8242,1.40137 c -12.2909,-33.23228 -37.5125,-57.99953 -68.9951,-69.74629 -37.5887,-14.47051 -84.5349,-16.49757 -123.7427,-3.54826 l 0,-2.31272 c 0,-2.98523 -2.3509,-5.62711 -5.2544,-5.90207 l -68.7502,-6.47077 -78.6875,7.40407 0,-87.01383 c 0,-2.97956 -2.3375,-5.0857 -5.2136,-4.70479 l -152.1015,20.17126 c -2.51681,0.33452 -4.55491,2.85696 -4.55491,5.63526 l 0,121.96542 c -18.10303,-24.82121 -48.39403,-35.83871 -76.12423,-37.85521 -21.4582,-1.78759 -42.7315,-1.46125 -63.5994,0.91169 -35.0854,3.49369 -84.9078,9.65974 -113.8191,34.50574 l 2.3591,-8.8625 c 0.6368,-2.39173 -0.3674,-4.83803 -2.234,-5.45598 -0.37,-0.12224 -0.7593,-0.16582 -1.1509,-0.12752 l -112.1948,10.55196 c -1.3932,0.13075 -2.6202,1.45063 -3.0284,3.25452 l -15.4147,68.15434 -16.705,-65.29448 c -0.4188,-1.6409 -1.5806,-2.66102 -2.8895,-2.53594 l -73.7407,6.93601 c -1.1756,0.11159 -2.223,1.24086 -2.6284,2.82967 l -16.3998,64.34775 -12.0108,-61.40609 c -0.3213,-1.65436 -1.3879,-2.72125 -2.6043,-2.60681 l -85.7662,8.06526 c -1.3444,0.12788 -2.4329,1.87759 -2.4329,3.91003 0,0.40289 0.044,0.79727 0.1283,1.17283 l 49.1229,214.267274 c 0.3557,1.550905 1.3383,2.625942 2.4456,2.669524 l 87.7509,3.545426 c 1.2001,0.04922 2.2719,-0.94677 2.6883,-2.500503 l 15.6844,-58.334051 15.9615,59.566431 c 0.4326,1.61362 1.5485,2.718422 2.7946,2.770148 l 101.6313,4.103491 c 1.4258,0.05996 2.694,-1.066885 3.1539,-2.797434 l 17.5641,-66.048166 c 8.645,68.831782 63.0796,82.121635 110.7093,83.079367 -14.5304,18.026877 -21.1914,41.033567 -21.4147,66.298293 -0.2012,22.791554 6.615,44.25014 20.8516,61.87986 l -24.0732,-2.58803 c -2.0491,-0.22041 -3.7034,1.63275 -3.7034,4.14177 0,0.0268 0,0.0573 0,0.0868 l 0.3264,20.6231 c 0.2533,35.18847 14.226,66.70933 39.4145,88.57295 10.4216,9.05031 24.019,18.27495 36.4595,22.13854 14.2803,4.17967 28.8514,7.17022 43.5968,8.92238 l 339.84904,57.69732 796.3906,-134.69193 c 0.392,-0.28028 0.8081,-0.44647 1.2246,-0.49256 z"
         id="path4061" />
      <path
         d="m 847.30776,-379.99038 c 7.8094,0.71289 15.5891,1.97539 23.295,3.7931 1.6381,0.38624 22.7671,-9.66538 25.5833,-10.9715 2.0137,-0.93579 3.2925,-3.28144 3.0533,-5.61329 l -5.1757,-50.71237 c -0.2367,-2.31838 -1.9155,-3.93732 -4.0135,-3.86929 l -83.8873,2.70177 c -4.939,-12.49222 -11.189,-23.98599 -18.5931,-34.22259 l 35.9344,-88.09703 c 0.9007,-2.20925 0.4379,-4.61196 -1.1076,-5.74121 l -33.1752,-24.23657 c -1.4939,-1.09133 -3.6216,-0.6176 -5.0801,1.13209 l -59.1015,70.8617 c -10.5494,-3.12129 -21.4472,-4.55527 -32.4403,-4.30227 l -21.4855,-78.14851 c -0.5223,-1.90488 -2.1171,-2.82436 -3.8041,-2.20429 l -36.13,13.298 c -1.6274,0.59846 -2.8952,2.54126 -3.0369,4.64491 l -5.8638,87.35399 c -9.3685,6.90058 -18.1222,15.08281 -26.0787,24.35058 l -55.3244,-27.44992 c -1.3223,-0.65838 -2.9388,0.10873 -3.8611,1.83118 l -19.9289,37.15896 c -0.9036,1.68413 -0.8845,3.86361 0.049,5.21078 l 39.7356,57.40325 c -3.4802,12.23923 -5.8613,24.81906 -7.1022,37.48525 l -31.6104,17.07201 c -1.6027,0.86529 -2.4814,3.27614 -1.9644,5.38759 0.4054,1.66004 1.5753,2.6968 2.9033,2.56605 l 5.2463,-0.52226 8.563,33.32471 c 0.5467,2.13059 2.3074,3.15921 3.9345,2.29393 0.9525,-0.50347 1.6927,-1.57817 1.9864,-2.88707 l 7.8693,-34.95749 73.2918,-7.30062 c 1.823,-0.18247 3.325,-2.16886 3.404,-4.50601 0.468,-13.49112 4.2693,-26.83762 10.8978,-38.17093 17.5754,-30.11415 50.5164,-39.22433 73.7626,-19.44495 10.9003,9.27636 18.1385,23.79573 20.1465,40.54664 0.2831,2.37543 2.0625,3.91535 4.0652,3.51283 38.0596,-7.4094 75.1718,-11.72797 115.0433,-8.57124 z m -356.7011,302.053418 -0.7809,-2.933495 -11.2407,-21.283903 c -0.9713,-1.8124 -2.7971,-2.2259 -4.0816,-0.93082 -0.4464,0.44925 -0.7837,1.06689 -0.9769,1.78511 l -6.0027,22.230985 -36.9626,-1.697948 c -1.5268,-0.0707 -2.762,1.627438 -2.762,3.790622 0,1.39571 0.5223,2.712748 1.3713,3.458261 l 40.5194,35.518061 c 1.1891,1.042087 2.7046,0.813563 3.6245,-0.555201 l 20.2475,-30.179032 c 0.9386,-1.401374 1.0038,-3.55109 0.1548,-5.140261 l -1.3033,-2.429644 c -0.4408,-0.827343 -1.0856,-1.409527 -1.8067,-1.632753 z m 189.3557,225.488542 29.1997,8.04896 c 2.0462,0.56585 3.8721,-0.98503 4.0705,-3.4611 0.095,-1.17849 -0.196,-2.41086 -0.8107,-3.437 -12.2938,-20.45405 -18.8599,-44.53821 -18.6884,-68.3283 l -0.6204,-39.38729 c 0.5552,-1.40953 0.3621,-2.53063 0.022,-4.19315 l 8.9493,-8.22576 c 1.1293,-1.03961 1.603,-2.85165 1.203,-4.62294 -4.8356,-21.461094 -3.6273,-45.033546 2.2829,-65.444372 0.6803,-2.331848 -0.3401,-4.98223 -2.2695,-5.920856 -0.7374,-0.359306 -1.5399,-0.427319 -2.2882,-0.193121 l -39.6839,12.451502 c -6.5877,-8.457145 -13.8692,-15.885717 -21.6733,-22.133259 l 2.0328,-27.210438 c 0.1141,-1.53212 -0.4163,-3.050424 -1.3961,-4.005346 -6.5005,-6.323725 -12.106,-13.92658 -16.5986,-22.48684 -1.0583,-2.01897 -3.1779,-2.58802 -4.7288,-1.27346 -0.6098,0.51412 -1.0694,1.27346 -1.3065,2.16035 l -10.0105,37.477102 -101.9687,-4.682828 c -1.6625,-0.07607 -3.0065,1.692283 -3.0065,3.950775 0,0.397518 0.043,0.797274 0.1276,1.18665 l 6.1933,28.301421 c -5.4393,7.278997 -10.1632,15.415084 -14.0843,24.242202 l -48.1545,-9.940027 c -1.3305,-0.275006 -2.5661,0.797275 -2.9551,2.568533 l -7.4013,33.773704 c -0.3837,1.752519 0.1769,3.733222 1.3415,4.740228 l 43.1695,37.27835 c -0.079,10.42721 0.7483,20.94696 2.4736,31.34653 l -37.4474,37.56427 c -1.0311,1.03393 -1.3196,3.04228 -0.691,4.80542 l 12.1497,34.06213 c 0.6392,1.79043 2.0324,2.85733 3.3384,2.54976 l 48.7913,-11.47211 c 5.6165,8.54962 11.9182,16.33174 18.7862,23.17815 l -5.0421,69.00048 c -0.1414,1.93216 0.7646,3.95361 2.1632,4.8327 l 27.2051,17.1156 c 1.4449,0.90885 2.9987,0.41067 3.7172,-1.19481 l 26.6633,-59.66987 c 8.6095,1.41767 17.2435,1.50483 25.7251,0.23956 l 36.7997,64.2928 c 1.0555,1.84783 2.8704,2.6968 4.3398,2.03279 l 28.661,-12.96849 c 1.5183,-0.68568 2.2557,-2.72657 1.766,-4.87345 l -17.6815,-77.41683 c 6.5987,-7.13727 12.4242,-15.41759 17.3359,-24.65816 z m -56.7994,-67.0442 c -6.9442,28.37266 -30.7399,41.34643 -52.7204,29.41469 -21.4774,-11.65709 -33.3875,-42.94652 -26.9985,-70.29585 6.43,-27.531443 29.1645,-41.550468 51.1915,-30.919212 22.5548,10.889616 35.5233,43.221172 28.5274,71.800372 z m -206.6637,-413.59734 6.1334,31.22392 c 0.4026,2.04909 1.9155,3.14822 3.3796,2.45976 0.8543,-0.4053 1.5453,-1.36027 1.8503,-2.57137 l 8.397,-33.07988 34.0461,-3.39023 c 1.0311,-0.10345 1.9835,-0.95775 2.5033,-2.24787 l 5.1591,-12.80794 c 0.6991,-1.73303 0.4571,-3.81472 -0.5825,-4.97657 l -22.3505,-25.00404 c -1.0123,-1.13173 -2.5143,-1.02578 -3.5918,0.24771 l -36.6827,43.32176 c -1.1973,1.4152 -1.4393,3.87495 -0.5386,5.50204 0.5141,0.92516 1.3195,1.42051 2.1738,1.33335 l 0.1035,-0.0107 z m -132.7849,80.47741 c -2.8857,9.9999 -4.9851,20.4349 -6.2575,31.09068 l -41.8283,18.79435 c -1.0027,0.45175 -1.6795,1.96193 -1.6193,3.61346 l 1.3256,36.08955 c 0.061,1.65684 0.844,3.01747 1.874,3.25169 l 44.1492,10.0024 c 2.4566,10.16608 5.709,19.87755 9.6959,28.93036 l -22.3915,58.821237 c -0.5439,1.431139 -0.354,3.303066 0.4564,4.484042 l 17.8703,26.007859 c 0.8291,1.205434 2.0643,1.385078 2.9529,0.424455 l 37.9374,-40.970833 c 6.7347,5.004199 13.8798,8.807931 21.285,11.311655 l 12.4976,71.150134 c 0.3103,1.765978 1.4063,3.052894 2.6213,3.072027 l 26.9489,0.4624 c 1.2565,0.02237 2.2887,-1.251495 2.4651,-3.04476 l 7.3928,-74.992517 c 5.4474,-2.636573 10.7373,-5.991723 15.8009,-10.037841 1.2951,-1.031455 1.7224,-3.401211 0.9525,-5.292629 -0.4897,-1.205434 -1.3798,-1.969722 -2.34,-2.016141 l -49.0329,-2.250348 -14.3333,-62.77199 c -0.2197,-0.96059 -0.691,-1.74968 -1.3054,-2.19047 -18.2328,-13.0067 -25.8753,-45.27276 -17.3476,-72.57599 0.1488,-0.47628 0.3018,-0.94961 0.4602,-1.42299 0.304,-0.90355 0.354,-1.94562 0.1393,-2.8846 l -19.091,-83.59349 c -0.1871,-0.82171 -0.5676,-1.49102 -1.0693,-1.88822 l -38.8101,-30.75339 c -0.9429,-0.74591 -2.1405,-0.31035 -2.8633,1.04209 l -15.6037,29.18613 c -0.708,1.32484 -0.7568,3.19712 -0.1159,4.48156 l 27.1839,54.4701 z m 101.0908,-86.85096 -12.8573,-69.55567 c -0.3143,-1.70043 -1.4212,-2.71275 -2.6454,-2.42433 l -26.2718,6.18235 c -1.1856,0.28028 -2.1557,1.76031 -2.3219,3.54011 l -6.7705,72.62485 c -0.1903,2.04909 0.7494,3.83137 2.1011,3.98374 0.1152,0.0134 0.231,0.0134 0.3469,0 l 54.255,-5.40425 c 1.4598,-0.14426 2.6447,-1.9807 2.6447,-4.10314 0,-1.81523 -0.8749,-3.28995 -2.0962,-3.54011 l -6.3847,-1.30358 z"
         style="fill:#00c9d1;fill-opacity:1;fill-rule:evenodd"
         id="path4063"
         inkscape:connector-curvature="0" />
      <path
         inkscape:connector-curvature="0"
         id="path4065"
         style="fill:#f2f2f2;fill-rule:evenodd"
         d="m 1052.4487,-13.004122 c -14.7043,-1.68413 -28.8541,3.191802 -39.0117,13.33594 l -0.2419,0.261493 c -9.883,11.531624 -15.66534,26.402159 -16.52248,42.377539 -0.15231,2.85732 1.89672,5.4992 4.57968,5.90491 0.092,0.0134 0.185,0.0242 0.2775,0.0322 l 103.5114,9.38232 c 2.9413,0.2665 5.3331,-1.95944 5.3331,-4.97161 0,-0.13039 0,-0.26113 -0.018,-0.39439 -0.5683,-8.16057 -2.1578,-16.29388 -4.7211,-24.18761 -7.9565,-24.130247 -29.6351,-40.981839 -53.1913,-41.74117 z m 53.3814,154.517752 56.2743,7.03416 6.136,-0.76748 c -24.2394,70.70125 -98.2736,76.39636 -158.8366,47.12871 -13.54816,-6.64759 -25.79562,-16.27724 -35.85539,-28.13023 C 942.4521,129.41856 937.51058,66.28762 945.81257,23.13956 c 5.97825,-31.06338 22.68282,-59.517473 50.22805,-72.412671 28.60648,-13.392946 65.88488,-13.836553 98.31748,-2.530625 60.8154,21.202374 79.6888,86.399126 78.8997,143.369866 l 0,7.59471 -11.1508,1.17815 -162.39294,-17.14002 c -2.68582,-0.28306 -4.85715,1.81487 -4.85715,4.68565 0,0.13889 0.005,0.27742 0.0134,0.41918 3.11563,41.68658 21.64069,71.31596 63.35449,76.26033 19.1671,2.27196 39.7788,-4.18782 47.6074,-23.05018 z M 2070.5148,-89.272243 2032.3956,84.69905 c -2.993,14.37233 -6.2528,28.71245 -9.7713,43.00613 -3.0395,12.47593 -8.3973,27.65153 -17.4146,32.87047 -9.4858,5.49104 -19.2706,6.18766 -29.1316,7.67585 l 0,-31.38438 c 10.1196,-0.53078 21.7548,-4.60133 25.2187,-21.91285 1.0123,-4.41353 1.7632,-8.90856 2.2422,-13.43375 0.063,-0.62044 0.027,-1.24086 -0.1092,-1.80142 l -44.5761,-183.883307 31.2702,-1.431497 25.4148,130.229904 c 0.2962,1.52114 1.2326,2.47358 2.2939,2.33468 1.1997,0 2.3183,-1.23236 2.7346,-3.01464 l 23.4227,-132.012565 26.5247,-1.213578 z m -147.6144,-45.294677 0,48.187472 c 0,2.130582 1.1948,3.803732 2.6667,3.738538 l 18.8269,-0.862425 0,28.07322 -18.8269,1.172475 c -1.4719,0.09244 -2.6667,1.893897 -2.6667,4.027316 l 0.01,104.730354 c 0.1361,5.36314 0.2909,10.6965 2.9173,14.3727 3.178,4.45427 13.9564,2.43531 18.5683,1.35779 l 0,30.03764 -18.1251,3.42849 c -4.6339,0.78913 -9.2894,0.94713 -13.9018,0.46804 -5.0857,-0.37273 -9.8854,-2.75633 -13.8826,-6.90873 -4.8111,-5.34967 -5.8504,-17.42031 -5.7933,-26.66902 l 0,-118.869923 c 0,-2.1685 -1.2409,-3.847314 -2.7727,-3.752355 l -16.0841,1.00169 0,-29.243225 16.0841,-0.734899 c 1.5318,-0.0707 2.7727,-1.885745 2.7727,-4.054244 l 0,-49.036384 30.2091,-0.46526 z m -76.0424,-17.33028 0,41.01191 -32.9739,0.92232 0,-41.76838 32.9739,-0.16582 z m -32.9739,74.363574 32.9739,-1.507323 0,192.762599 -32.9739,5.06409 0,-196.318973 z m -118.8037,214.555436 0,-209.124231 35.518,-1.621764 0,32.690506 c 0,2.37295 1.48,4.19597 3.3006,4.079042 1.434,0.05727 2.8109,-0.944291 3.5536,-2.593341 4.3537,-11.602501 10.1441,-22.162969 17.0939,-31.20764 7.8881,-9.766057 18.9928,-10.914047 28.7259,-10.367347 l 0,47.014605 c -2.8541,-0.114459 -5.7278,-0.03043 -8.6092,0.250127 -18.8298,1.197282 -35.6023,11.597221 -40.4131,38.111061 -1.2302,6.625973 -1.834,13.371379 -1.7932,20.081682 l 0,106.94884 -37.3765,5.73872 z m -49.8606,-206.841317 0,214.492787 -38.8077,5.95913 0,-27.54809 c -0.1906,-2.77264 -2.2096,-4.57936 -4.5117,-4.0298 -1.3525,0.32101 -2.5686,1.41236 -3.2626,2.92536 -15.8418,35.97473 -49.2838,50.30957 -79.8057,44.17362 -8.691,-1.87759 -16.6529,-6.29112 -23.197,-12.89269 -13.8394,-14.16579 -18.2448,-38.3449 -18.0867,-60.79379 l 0,-154.61888 46.1245,-2.108622 0,142.284342 c -0.1987,31.62144 12.7428,46.83741 37.9969,43.30547 28.6147,-4.00251 43.02,-31.67568 42.6334,-62.32024 l 0,-126.959015 40.9166,-1.86909 z m -268.2742,173.379757 51.0008,-5.96975 c -8.6286,57.41417 -46.8484,95.09844 -100.0777,102.61926 l -0.2855,0.0456 c -76.2546,13.19169 -111.784,-37.51782 -111.9577,-112.36841 -0.081,-36.4297 6.593,-76.442803 28.9736,-107.119762 28.7588,-39.422731 79.591,-49.025109 119.0624,-40.026526 37.0526,8.448643 61.624,36.364198 65.1096,77.879226 l -51.779,4.212272 c -5.6055,-26.459604 -21.7686,-40.151987 -45.2731,-38.135846 -56.1815,4.816403 -58.9679,72.486326 -55.1341,114.828516 2.9469,32.51931 19.249,60.26302 53.9612,54.7068 21.989,-3.5185 36.8514,-18.98747 44.1304,-41.06328 1.0666,-3.14042 1.8283,-6.36199 2.2692,-9.60837 z M 900.46626,5.972433 852.79906,2.380588 c -3.1267,-15.714162 -11.2436,-28.52497 -25.0448,-31.896094 -13.2459,-3.235384 -15.5346,-2.571728 -28.0105,-2.410859 -13.8065,0.17397 -24.0434,9.999897 -23.8882,25.305534 0.098,9.493915 5.8667,16.549649 13.0858,20.228354 10.8733,5.592038 22.2282,10.005537 33.915,13.161967 l 32.9332,11.97532 c 15.9044,6.12779 34.9571,18.01346 44.4563,35.56693 5.6516,10.44601 7.0476,19.99979 7.2517,31.50698 0.4734,14.10619 -2.6557,27.59695 -8.9904,38.8431 -22.3997,38.60917 -79.8574,32.41058 -115.2312,18.1442 -29.7411,-11.99438 -54.383,-36.2501 -56.2308,-74.67115 l 44.4621,5.42549 c 1.5268,19.12386 14.098,31.71676 28.9821,36.50309 11.0338,3.54578 21.3575,5.51018 32.5356,5.04495 13.0829,-0.54705 25.0308,-9.3986 25.6977,-24.9873 0.4299,-10.08178 -6.2666,-18.67211 -13.9673,-22.72354 -11.5044,-6.15258 -23.2376,-11.09124 -35.0499,-14.77272 -10.6037,-3.5022 -21.0255,-7.41506 -31.2484,-11.72797 -14.6529,-6.27447 -30.3044,-16.94367 -38.5358,-33.27828 -8.2393,-16.359032 -7.4201,-37.580557 -2.5005,-54.132713 10.2284,-34.396918 42.296,-45.436074 71.8439,-43.607774 10.6476,0.566209 21.3821,2.060073 32.114,4.487237 32.5112,7.694987 55.515,32.23625 59.0878,71.607254 z" />
      <path
         inkscape:connector-curvature="0"
         id="path4067"
         style="fill:#f2f2f2;fill-rule:evenodd"
         d="m 1607.2479,-281.47159 c -8.5277,-4.06274 -17.5752,-6.34038 -26.7452,-6.7103 -25.6652,-1.70893 -52.2552,5.5155 -56.7995,41.24862 -0.3481,2.58236 1.1675,5.07471 3.3768,5.56723 0.2094,0.0456 0.4188,0.0734 0.6282,0.0814 l 102.3311,3.90471 c 2.019,0.0761 3.6546,-1.88007 3.6546,-4.36995 0,-0.11697 0,-0.23384 -0.01,-0.35116 -1.1455,-18.39147 -12.6067,-33.19112 -26.4352,-39.37065 z m 18.973,115.42524 77.0983,0.19841 c -18.008,54.63628 -77.2017,65.863183 -120.4091,67.172078 -28.1111,0.851775 -50.2118,-1.458428 -78.4019,-11.246058 -19.8935,-6.86266 -37.7056,-20.79421 -50.919,-40.02939 -14.3482,-21.58369 -17.7059,-45.02254 -18.1006,-70.31751 -0.5575,-24.17419 5.5374,-47.64033 17.3522,-66.99525 12.3236,-18.47048 29.1968,-31.79541 48.2987,-38.33139 24.1958,-8.28033 49.2129,-11.03951 73.7542,-8.32108 15.4803,1.42299 30.7044,4.13609 45.5643,8.09254 23.6539,6.48672 47.6021,20.25807 63.2047,43.32463 15.9834,23.62668 22.3125,57.7324 22.141,88.18106 l -178.0986,-3.08834 c -2.2366,-0.0376 -4.0542,2.06007 -4.0542,4.68849 0,0.0358 0,0.068 0,0.10346 0.1038,5.434 1.2681,10.78088 3.4012,15.61321 10.3294,23.58633 33.7985,30.8597 53.7844,30.66085 17.2382,-0.1711 34.0242,-3.18082 45.3847,-19.70572 z m -801.79774,-31.42904 0,-10.20402 c 0,-2.65819 -1.8585,-4.76716 -4.1496,-4.71259 -0.2611,0.008 -0.5223,0.043 -0.7781,0.10596 -9.9999,2.46543 -19.9945,4.34834 -29.9427,5.65723 l -41.594,5.50984 c -13.6949,1.21641 -27.4553,8.12514 -26.7399,27.33867 0.9007,24.10045 19.6079,30.669 35.7629,30.03227 20.7672,-0.82171 47.145,-2.5905 60.8484,-26.10845 4.6746,-8.15525 6.9902,-17.84476 6.593,-27.61896 z m -94.9078,-66.86951 -74.2605,3.76051 c 4.3158,-23.1863 13.2708,-41.95058 31.5291,-53.21293 11.6514,-6.97959 24.1248,-11.89093 37.02,-14.54138 18.8951,-4.0135 38.2443,-6.80526 57.9719,-8.32109 30.1577,-2.45692 70.4756,-4.2392 100.1135,12.48166 23.091,13.02836 30.8079,41.97743 30.3945,69.71623 l 0,118.10746 c -0.09,11.26772 1.5864,22.84051 5.99989,33.18333 l -88.54029,-2.28861 c -1.3525,-6.11964 -2.1387,-12.3672 -2.351,-18.64204 -0.09,-2.66102 -2.0246,-4.76184 -4.3182,-4.69381 -0.985,0.0268 -1.9212,0.46276 -2.6451,1.22173 -25.4089,26.65837 -63.768,29.49899 -94.0478,28.454094 -25.4721,-0.878712 -66.0783,-5.042114 -79.4688,-38.189994 -7.3438,-18.17641 -8.0649,-47.18294 1.6548,-64.46426 6.0785,-10.2068 14.4839,-17.99717 24.1628,-22.33444 15.1154,-6.81625 31.1668,-10.82974 47.624,-11.83106 l 73.4495,-6.94699 c 13.2923,-1.13209 29.1967,-5.49105 28.3995,-25.39306 -1.0311,-25.70305 -31.8798,-25.38983 -46.0728,-24.44024 -17.0068,1.13456 -40.3072,4.9468 -46.6118,28.37507 z m 997.57264,152.86109 0,-201.20875 62.829,4.99853 0,34.78844 c 0,2.29677 1.3851,4.23957 3.094,4.34019 1.1484,0.18247 2.2667,-0.36459 3.0232,-1.48287 10.8921,-17.42846 22.2445,-29.78465 38.5192,-35.29765 6.868,-2.28295 13.9483,-3.11845 21.0093,-2.49236 10.6175,1.17815 8.7045,0.99319 18.0921,3.20811 l 0,70.72281 c -9.4064,-4.00003 -19.1887,-6.4651 -29.1503,-7.32223 -28.3535,-1.99735 -53.0173,14.18736 -52.3778,56.33957 l 0,71.72412 -65.0387,1.68166 z m -631.9842,12.884194 0,-253.716674 66.9977,-5.32522 39.6538,3.15354 0,27.78192 c 0,3.02881 2.4137,5.64377 5.3823,5.83688 1.9591,0.28315 3.875,-0.37031 5.1892,-1.76598 23.1125,-26.55492 67.2373,-32.74787 99.3215,-30.11379 13.7033,1.07999 27.197,3.99967 40.1657,8.65273 38.639,14.07084 57.2619,47.87175 56.8619,90.01268 l 0,150.8361 -95.6104,2.47322 0,-126.7684 c 0.5584,-32.66607 -16.6964,-52.60349 -47.972,-53.9829 -39.2813,-1.73622 -60.3342,25.47735 -59.4905,66.04816 l 0,117.484608 -43.5015,1.123577 -66.9977,-1.730549 z m -143.81642,-277.033534 0,-52.55992 98.83652,-11.6706 0,54.85383 -98.83652,9.3766 z m 0,273.3134 0,-238.56049 98.83652,-7.85833 0,248.973657 -98.83652,-2.555077 z m -568.25852,-14.69084 -40.6456,-175.45326 55.824,-4.43834 20.8597,107.83838 c 0.3264,1.68732 1.4039,2.84349 2.6366,2.8272 1.2951,0.12788 2.5197,-0.91134 3.0667,-2.60681 l 28.9764,-112.47491 51.1316,-4.06522 28.998,114.67638 c 0.4273,1.68449 1.6111,2.80559 2.9469,2.78645 1.5346,0.1414 2.9743,-1.07751 3.543,-3.004 l 27.3192,-119.4543 72.4647,-5.76035 -53.7111,204.38927 -77.2996,-1.997 -27.4148,-101.16325 c -0.563,-2.07602 -2.2476,-3.08834 -3.7605,-2.26665 -0.7973,0.4326 -1.4259,1.32271 -1.7196,2.43 l -26.4433,99.4656 -66.7724,-1.72807 z" />
    </g>
  </g>
</svg>
